<svg width="861" height="266" viewBox="0 0 861 266" fill="none" xmlns="http://www.w3.org/2000/svg">
<g opacity="0.3">
<path d="M31.3091 95.0735C35.3345 85.9205 40.8509 78.4842 47.8582 72.7637C55.0145 67.0433 63.1398 64.1831 72.2345 64.1831C82.8198 64.1831 92.3618 68.1874 100.86 76.196C109.507 84.2046 116.291 95.6458 121.211 110.519C126.28 125.163 128.815 142.21 128.815 161.659C128.815 181.109 126.28 198.384 121.211 213.486C116.291 228.359 109.507 239.915 100.86 248.152C92.3618 256.39 82.8198 260.508 72.2345 260.508C62.9911 260.508 54.8654 257.762 47.8582 252.271C41 246.55 35.4837 239.228 31.3091 230.304V257.419H0V3.43213H31.3091V95.0735ZM96.8345 161.659C96.8345 150.219 95.2691 140.379 92.1382 132.142C89.1565 123.675 85.1311 117.269 80.0618 112.921C75.1418 108.573 69.7745 106.4 63.96 106.4C58.2947 106.4 52.9273 108.688 47.8582 113.264C42.9382 117.612 38.9127 124.019 35.7818 132.485C32.8 140.952 31.3091 150.905 31.3091 162.346C31.3091 173.786 32.8 183.74 35.7818 192.206C38.9127 200.673 42.9382 207.194 47.8582 211.77C52.9273 216.118 58.2947 218.292 63.96 218.292C69.7745 218.292 75.1418 216.003 80.0618 211.427C85.1311 206.851 89.1565 200.33 92.1382 191.863C95.2691 183.397 96.8345 173.329 96.8345 161.659Z" fill="#242424"/>
<path d="M167.221 3.43213V257.419H135.912V3.43213H167.221Z" fill="#242424"/>
<path d="M223.425 259.891C213.883 259.891 205.295 256.688 197.662 250.28C190.029 243.69 184.005 234.447 179.592 222.548C175.299 210.649 173.152 196.92 173.152 181.361C173.152 165.801 175.358 152.072 179.771 140.174C184.304 128.275 190.446 119.123 198.199 112.715C205.952 106.126 214.599 102.831 224.141 102.831C233.683 102.831 242.33 106.126 250.083 112.715C257.835 119.123 263.918 128.275 268.331 140.174C272.864 152.072 275.13 165.801 275.13 181.361C275.13 196.92 272.804 210.649 268.152 222.548C263.62 234.447 257.418 243.69 249.546 250.28C241.793 256.688 233.086 259.891 223.425 259.891ZM223.425 226.392C227.958 226.392 232.192 224.744 236.128 221.449C240.183 217.972 243.403 212.846 245.789 206.073C248.174 199.3 249.367 191.063 249.367 181.361C249.367 166.9 246.862 155.825 241.853 148.136C236.962 140.265 230.939 136.329 223.783 136.329C216.627 136.329 210.603 140.265 205.713 148.136C200.942 155.825 198.557 166.9 198.557 181.361C198.557 195.822 200.883 206.988 205.534 214.859C210.305 222.548 216.269 226.392 223.425 226.392Z" fill="#242424"/>
<path d="M437.88 259.891C428.338 259.891 419.75 256.688 412.117 250.28C404.484 243.69 398.46 234.447 394.047 222.548C389.753 210.649 387.606 196.92 387.606 181.361C387.606 165.801 389.813 152.072 394.226 140.174C398.759 128.275 404.901 119.123 412.654 112.715C420.407 106.126 429.054 102.831 438.596 102.831C448.138 102.831 456.784 106.126 464.537 112.715C472.29 119.123 478.373 128.275 482.786 140.174C487.319 152.072 489.585 165.801 489.585 181.361C489.585 196.92 487.259 210.649 482.607 222.548C478.075 234.447 471.873 243.69 464.001 250.28C456.248 256.688 447.541 259.891 437.88 259.891ZM437.88 226.392C442.412 226.392 446.646 224.744 450.582 221.449C454.638 217.972 457.858 212.846 460.244 206.073C462.629 199.3 463.822 191.063 463.822 181.361C463.822 166.9 461.317 155.825 456.308 148.136C451.417 140.265 445.394 136.329 438.238 136.329C431.081 136.329 425.058 140.265 420.168 148.136C415.397 155.825 413.012 166.9 413.012 181.361C413.012 195.822 415.337 206.988 419.989 214.859C424.76 222.548 430.724 226.392 437.88 226.392Z" fill="#242424"/>
<path d="M652.381 64.5264C667.588 64.5264 679.816 71.7341 689.057 86.1497C698.45 100.336 703.146 120.243 703.146 145.871V257.419H671.837V152.392C671.837 137.519 669.377 126.193 664.457 118.413C659.537 110.405 652.828 106.4 644.33 106.4C635.832 106.4 629.05 110.405 623.979 118.413C619.059 126.193 616.599 137.519 616.599 152.392V257.419H585.29V152.392C585.29 137.519 582.83 126.193 577.91 118.413C572.99 110.405 566.281 106.4 557.784 106.4C549.137 106.4 542.279 110.405 537.21 118.413C532.29 126.193 529.83 137.519 529.83 152.392V257.419H498.521V67.2722H529.83V90.2684C533.855 82.2597 538.999 75.9673 545.261 71.3909C551.671 66.8146 558.678 64.5264 566.281 64.5264C575.976 64.5264 584.619 67.7299 592.223 74.1367C599.826 80.3148 605.719 89.2387 609.89 100.908C613.915 89.9252 619.73 81.1157 627.334 74.4799C635.088 67.8442 643.435 64.5264 652.381 64.5264Z" fill="#242424"/>
<path d="M723.464 17.8477H756.338L732.185 104.341H710.716L723.464 17.8477Z" fill="#242424"/>
<path d="M810.548 260.508C800.411 260.508 791.315 257.763 783.264 252.271C775.213 246.55 768.8 238.885 764.031 229.275C759.408 219.664 756.875 209.024 756.428 197.355H787.96C788.559 204.677 790.868 210.741 794.893 215.546C799.07 220.351 804.213 222.754 810.324 222.754C816.29 222.754 820.908 220.923 824.19 217.262C827.617 213.601 829.333 208.91 829.333 203.19C829.333 197.012 827.248 192.436 823.071 189.461C819.046 186.257 812.56 182.825 803.615 179.164C794.373 175.732 786.77 172.185 780.804 168.524C774.99 164.862 769.919 159.257 765.597 151.706C761.42 144.155 759.335 133.972 759.335 121.159C759.335 110.633 761.275 101.022 765.15 92.3277C769.175 83.6326 774.839 76.7681 782.146 71.7341C789.599 66.7002 798.32 64.1831 808.311 64.1831C823.071 64.1831 834.851 69.9036 843.646 81.3444C852.44 92.5568 857.288 107.773 858.182 126.994H828.215C827.768 119.443 825.682 113.494 821.953 109.146C818.375 104.57 813.528 102.281 807.417 102.281C801.753 102.281 797.353 103.883 794.222 107.086C791.242 110.29 789.75 114.752 789.75 120.472C789.75 126.879 791.835 131.799 796.011 135.231C800.188 138.434 806.673 141.752 815.468 145.184C824.413 148.617 831.793 152.163 837.608 155.824C843.422 159.486 848.415 165.206 852.591 172.986C856.913 180.537 859.149 190.604 859.3 203.19C859.3 214.173 857.288 224.012 853.262 232.707C849.388 241.402 843.719 248.266 836.266 253.301C828.959 258.106 820.388 260.508 810.548 260.508Z" fill="#242424"/>
<path d="M180.251 0C180.251 32.8924 191.433 96.9613 236.16 90.0968C280.887 83.2322 379.66 87.2368 423.455 90.0968C441.16 91.5272 476.569 75.5097 476.569 0" stroke="#242424" stroke-width="16"/>
</g>
</svg>
