<svg width="18" height="18" viewBox="0 0 18 18" fill="none" xmlns="http://www.w3.org/2000/svg">
<path d="M0.818572 4.09041C1.26774 4.09041 1.63592 3.72223 1.63592 3.27306V2.45449C1.63714 2.00409 2.00532 1.63592 2.45449 1.63592H3.27306C3.72223 1.63592 4.09041 1.26774 4.09041 0.818572C4.09041 0.368173 3.72223 0 3.27306 0H2.45449C1.09593 0 0 1.09593 0 2.45449V3.27306C0 3.72223 0.368173 4.09041 0.818572 4.09041ZM3.27306 16.3629H2.45449C2.2378 16.3622 2.03016 16.2759 1.87682 16.1228C1.72348 15.9697 1.63689 15.7622 1.63592 15.5455V14.7269C1.63592 14.2765 1.26774 13.9096 0.818572 13.9096C0.368173 13.9096 0 14.2778 0 14.7269V15.5455C0 16.9041 1.09593 18 2.45449 18H3.27306C3.72223 18 4.09041 17.6318 4.09041 17.1814C4.09041 16.731 3.72223 16.3641 3.27306 16.3641V16.3629ZM15.5455 0H14.7282C14.2778 0 13.9096 0.368173 13.9096 0.818572C13.9096 1.26774 14.2778 1.63592 14.7282 1.63592H15.5455C15.9959 1.63592 16.3641 2.00409 16.3641 2.45449V3.27306C16.3641 3.72223 16.7323 4.09041 17.1827 4.09041C17.6318 4.09041 18 3.72223 18 3.27306V2.45449C18 1.09593 16.9041 0 15.5455 0ZM17.1827 13.9084C16.7323 13.9084 16.3641 14.2765 16.3641 14.7269V15.5455C16.3641 15.9959 15.9959 16.3641 15.5455 16.3641H14.7282C14.2778 16.3641 13.9096 16.7323 13.9096 17.1814C13.9096 17.6318 14.2778 18 14.7282 18H15.5455C16.9041 18 18 16.9041 18 15.5455V14.7269C18 14.2765 17.6318 13.9096 17.1827 13.9096V13.9084ZM14.7257 11.3483V6.65167C14.7257 6.06259 14.4152 5.5226 13.9084 5.23665L9.81673 2.88034C9.56871 2.73481 9.28634 2.65809 8.99877 2.65809C8.7112 2.65809 8.42884 2.73481 8.18081 2.88034L4.09041 5.22684C3.58233 5.52137 3.27183 6.06136 3.27183 6.65044V11.3471C3.27183 11.9362 3.58233 12.4762 4.09041 12.7621L8.18081 15.1184C8.42884 15.264 8.7112 15.3407 8.99877 15.3407C9.28634 15.3407 9.56871 15.264 9.81673 15.1184L13.9096 12.7633C14.159 12.6211 14.3661 12.4151 14.5098 12.1664C14.6534 11.9178 14.7283 11.6355 14.7269 11.3483H14.7257ZM8.18081 13.2297L4.90775 11.3483V7.55983L8.18081 9.46574V13.2297ZM8.99939 8.05073L5.75946 6.16077L8.99939 4.29536L12.2393 6.16077L8.99939 8.05073ZM13.0898 11.3483L9.81673 13.2297V9.46574L13.0898 7.55983V11.3483Z" fill="#A6A6A6"/>
</svg>
