<svg width="20" height="20" viewBox="0 0 20 20" fill="none" xmlns="http://www.w3.org/2000/svg">
<path d="M15.8338 5.83375C15.8338 4.9175 15.0838 4.1675 14.1675 4.1675H12.5013C12.0425 4.1675 11.6675 4.5425 11.6675 5C11.6675 5.45875 12.0425 5.83375 12.5013 5.83375H14.1675V8.0425L11.2675 11.6675H8.33376V8.33375C8.33376 7.875 7.95876 7.5 7.50126 7.5H5.00001C4.56217 7.49983 4.12859 7.58595 3.72404 7.75343C3.3195 7.92091 2.95193 8.16646 2.64233 8.47606C2.33273 8.78566 2.08717 9.15324 1.91969 9.55778C1.75221 9.96232 1.6661 10.3959 1.66626 10.8337V12.5C1.66626 12.9587 2.04126 13.3337 2.50001 13.3337H3.33251C3.33251 14.7175 4.45001 15.8337 5.83251 15.8337C7.21626 15.8337 8.33251 14.7175 8.33251 13.3337H11.2663C11.775 13.3337 12.25 13.1 12.5663 12.7087L15.4663 9.08375C15.7075 8.78375 15.8325 8.41625 15.8325 8.0425L15.8338 5.83375ZM5.83376 14.1675C5.61306 14.1665 5.40169 14.0783 5.24575 13.9221C5.0898 13.7659 5.00192 13.5545 5.00126 13.3337H6.66751C6.66751 13.7925 6.29251 14.1675 5.83376 14.1675Z" fill="#A6A6A6"/>
<path d="M5.00001 5H7.50001C7.95876 5 8.33376 5.375 8.33376 5.83375C8.33376 6.29125 7.95876 6.66625 7.50126 6.66625H5.00001C4.7793 6.66559 4.56781 6.57771 4.41163 6.42177C4.25545 6.26582 4.16725 6.05445 4.16626 5.83375C4.16626 5.375 4.54126 5 5.00001 5ZM15.835 10.8325C14.4513 10.8325 13.335 11.95 13.335 13.3325C13.335 14.7163 14.4513 15.8325 15.835 15.8325C17.2188 15.8325 18.335 14.7163 18.335 13.3325C18.335 11.95 17.2188 10.8325 15.835 10.8325ZM15.835 14.1663C15.6141 14.1656 15.4024 14.0775 15.2462 13.9213C15.09 13.7651 15.0019 13.5534 15.0013 13.3325C15.0013 12.875 15.3763 12.5 15.835 12.5C16.2938 12.5 16.6688 12.875 16.6688 13.3325C16.6688 13.7913 16.2938 14.1663 15.835 14.1663Z" fill="#A6A6A6"/>
</svg>
