<svg width="42" height="42" viewBox="0 0 42 42" fill="none" xmlns="http://www.w3.org/2000/svg">
<g clip-path="url(#clip0_24_594)">
<path d="M42 21.128C42 9.53069 32.5973 0.12793 21 0.12793C9.40275 0.12793 0 9.53069 0 21.128C0 31.6104 7.679 40.2974 17.7188 41.8724V27.1987H12.3865V21.1262H17.7188V16.5027C17.7188 11.2404 20.8547 8.33193 25.6515 8.33193C27.9475 8.33193 30.352 8.74319 30.352 8.74319V13.9109H27.7025C25.0933 13.9109 24.2795 15.5297 24.2795 17.1905V21.128H30.1035L29.1725 27.2004H24.2795V41.8742C34.321 40.2974 42 31.6087 42 21.128Z" fill="white"/>
</g>
<defs>
<clipPath id="clip0_24_594">
<rect width="42" height="42" fill="white"/>
</clipPath>
</defs>
</svg>
