<svg width="26" height="26" viewBox="0 0 26 26" fill="none" xmlns="http://www.w3.org/2000/svg">
<path d="M12.9999 2.1671C7.04199 2.1671 2.16699 7.0421 2.16699 13C2.16699 18.9579 7.04199 23.8329 12.9999 23.8329C18.9578 23.8329 23.8328 18.9579 23.8328 13C23.8328 7.0421 18.9578 2.1671 12.9999 2.1671ZM16.8453 17.1171L12.4253 14.3975C12.2662 14.3024 12.1345 14.1676 12.0433 14.0062C11.9522 13.8448 11.9046 13.6625 11.9053 13.4771V8.3954C11.911 8.17969 12 7.97457 12.1537 7.82308C12.3074 7.67159 12.5137 7.58551 12.7295 7.5829C12.9445 7.5846 13.1501 7.67075 13.3021 7.82275C13.4541 7.97476 13.5403 8.18044 13.542 8.3954V13.2158L17.702 15.7183C18.092 15.9575 18.222 16.4658 17.9828 16.8571C17.8652 17.041 17.68 17.1713 17.4673 17.2199C17.2545 17.2686 17.0311 17.2316 16.8453 17.1171Z" fill="url(#paint0_linear_55_976)"/>
<defs>
<linearGradient id="paint0_linear_55_976" x1="12.9999" y1="2.1671" x2="12.9999" y2="23.8329" gradientUnits="userSpaceOnUse">
<stop stop-color="#FF4343"/>
<stop offset="1" stop-color="#660000"/>
</linearGradient>
</defs>
</svg>
