<svg width="51" height="48" viewBox="0 0 51 48" fill="none" xmlns="http://www.w3.org/2000/svg">
<g clip-path="url(#clip0_54_618)">
<path d="M9.87498 48H40.2588C41.5173 48 42.5376 47.0231 42.5376 45.8182V21.0909C42.5376 19.886 41.5173 18.9091 40.2588 18.9091H37.98V12.3636C37.98 5.54633 32.1872 0 25.0669 0C17.9466 0 12.1538 5.54633 12.1538 12.3636V18.9091H9.87498C8.61648 18.9091 7.59619 19.886 7.59619 21.0909V45.8182C7.59619 47.0231 8.61648 48 9.87498 48ZM27.3457 34.1798V37.0909C27.3457 38.2959 26.3254 39.2727 25.0669 39.2727C23.8084 39.2727 22.7881 38.2959 22.7881 37.0909V34.1798C21.8663 33.5158 21.2689 32.4599 21.2689 31.2727C21.2689 29.2676 22.9727 27.6364 25.0669 27.6364C27.1611 27.6364 28.8649 29.2676 28.8649 31.2727C28.8649 32.4599 28.2675 33.5158 27.3457 34.1798ZM16.7113 12.3636C16.7113 7.95244 20.4596 4.36364 25.0669 4.36364C29.6742 4.36364 33.4225 7.95244 33.4225 12.3636V18.9091H16.7113V12.3636Z" fill="url(#paint0_linear_54_618)"/>
</g>
<defs>
<linearGradient id="paint0_linear_54_618" x1="25.0669" y1="0" x2="25.0669" y2="48" gradientUnits="userSpaceOnUse">
<stop stop-color="#FF4343"/>
<stop offset="1" stop-color="#660000"/>
</linearGradient>
<clipPath id="clip0_54_618">
<rect width="50.1333" height="48" fill="white"/>
</clipPath>
</defs>
</svg>
