<svg width="28" height="28" viewBox="0 0 28 28" fill="none" xmlns="http://www.w3.org/2000/svg">
<g clip-path="url(#clip0_42_115)">
<path d="M6.70836 24.0649L1.75 19.6424L2.91471 18.3363L7.85068 22.7389L14.5799 16.2246C14.8933 15.9213 15.312 15.751 15.7482 15.7497C16.1843 15.7483 16.6041 15.9159 16.9193 16.2173L20.09 19.2485L24.9717 14.0217L26.25 15.2167L21.3665 20.4455C21.2087 20.6144 21.019 20.7502 20.8084 20.8452C20.5978 20.9402 20.3704 20.9925 20.1395 20.999C19.9085 21.0055 19.6786 20.9662 19.4629 20.8832C19.2473 20.8002 19.0503 20.6752 18.8833 20.5155L15.7539 17.5238L9.0461 24.0169C8.7345 24.3186 8.3203 24.4912 7.88667 24.5001C7.45304 24.509 7.03209 24.3535 6.70836 24.0649Z" fill="url(#paint0_linear_42_115)"/>
<path d="M26.25 9.625H22.75L24.5 7L26.25 9.625Z" fill="url(#paint1_linear_42_115)"/>
<path d="M19.25 3.5H15.75V5.25H19.25V7H16.625V8.75H19.25V10.5H15.75V12.25H19.25C19.7139 12.2494 20.1587 12.0648 20.4867 11.7367C20.8148 11.4087 20.9994 10.9639 21 10.5V5.25C20.9995 4.78603 20.8149 4.34122 20.4868 4.01315C20.1588 3.68508 19.714 3.50053 19.25 3.5Z" fill="url(#paint2_linear_42_115)"/>
<path d="M14 12.25H8.75V8.75C8.75046 8.28601 8.93499 7.84116 9.26307 7.51307C9.59116 7.18499 10.036 7.00046 10.5 7H12.25V5.25H8.75V3.5H12.25C12.714 3.50053 13.1588 3.68508 13.4868 4.01315C13.8149 4.34122 13.9995 4.78603 14 5.25V7C13.9995 7.46397 13.8149 7.90877 13.4868 8.23685C13.1588 8.56492 12.714 8.74947 12.25 8.75H10.5V10.5H14V12.25Z" fill="url(#paint3_linear_42_115)"/>
<path d="M5.25 10.5V3.5H3.5V4.375H1.75V6.125H3.5V10.5H1.75V12.25H7V10.5H5.25Z" fill="url(#paint4_linear_42_115)"/>
</g>
<defs>
<linearGradient id="paint0_linear_42_115" x1="14" y1="14.0217" x2="14" y2="24.5005" gradientUnits="userSpaceOnUse">
<stop stop-color="#FF4343"/>
<stop offset="1" stop-color="#660000"/>
</linearGradient>
<linearGradient id="paint1_linear_42_115" x1="24.5" y1="7" x2="24.5" y2="9.625" gradientUnits="userSpaceOnUse">
<stop stop-color="#FF4343"/>
<stop offset="1" stop-color="#660000"/>
</linearGradient>
<linearGradient id="paint2_linear_42_115" x1="18.375" y1="3.5" x2="18.375" y2="12.25" gradientUnits="userSpaceOnUse">
<stop stop-color="#FF4343"/>
<stop offset="1" stop-color="#660000"/>
</linearGradient>
<linearGradient id="paint3_linear_42_115" x1="11.375" y1="3.5" x2="11.375" y2="12.25" gradientUnits="userSpaceOnUse">
<stop stop-color="#FF4343"/>
<stop offset="1" stop-color="#660000"/>
</linearGradient>
<linearGradient id="paint4_linear_42_115" x1="4.375" y1="3.5" x2="4.375" y2="12.25" gradientUnits="userSpaceOnUse">
<stop stop-color="#FF4343"/>
<stop offset="1" stop-color="#660000"/>
</linearGradient>
<clipPath id="clip0_42_115">
<rect width="28" height="28" fill="white"/>
</clipPath>
</defs>
</svg>
