<svg width="48" height="48" viewBox="0 0 48 48" fill="none" xmlns="http://www.w3.org/2000/svg">
<path d="M18.4 18.4L22.85 11.05L19.9 6.15C19.5 5.48333 18.925 5.15 18.175 5.15C17.425 5.15 16.85 5.48333 16.45 6.15L11.55 14.3L18.4 18.4ZM37.75 32L33.3 24.6L40.25 20.6L43.45 25.95C43.8167 26.5167 44.0167 27.15 44.05 27.85C44.0833 28.55 43.9333 29.2 43.6 29.8C43.2667 30.4667 42.775 31 42.125 31.4C41.475 31.8 40.7667 32 40 32H37.75ZM32 46L24 38L32 30V34H41.5L38.6 39.8C38.2333 40.4667 37.7333 41 37.1 41.4C36.4667 41.8 35.7667 42 35 42H32V46ZM12.65 42C11.9833 42 11.375 41.825 10.825 41.475C10.275 41.125 9.86667 40.6667 9.6 40.1C9.33333 39.5667 9.20833 39.0083 9.225 38.425C9.24167 37.8417 9.4 37.3 9.7 36.8L11.4 34H20V42H12.65ZM7.7 36.3L4.45 29.8C4.15 29.2 4.00833 28.5583 4.025 27.875C4.04167 27.1917 4.23333 26.55 4.6 25.95L5.4 24.6L2 22.55L12.95 19.8L15.7 30.8L12.25 28.7L7.7 36.3ZM34.7 19.2L23.75 16.45L27.2 14.4L20.95 4H28C28.7 4 29.3583 4.175 29.975 4.525C30.5917 4.875 31.0833 5.35 31.45 5.95L34.05 10.3L37.45 8.2L34.7 19.2Z" fill="url(#paint0_linear_54_530)"/>
<defs>
<linearGradient id="paint0_linear_54_530" x1="23.0273" y1="4" x2="23.0273" y2="46" gradientUnits="userSpaceOnUse">
<stop stop-color="#FF4343"/>
<stop offset="1" stop-color="#660000"/>
</linearGradient>
</defs>
</svg>
