<svg width="22" height="20" viewBox="0 0 22 20" fill="none" xmlns="http://www.w3.org/2000/svg">
<path d="M8.2 7.07158L10.425 3.77142L8.95 1.57131C8.75 1.27198 8.4625 1.12231 8.0875 1.12231C7.7125 1.12231 7.425 1.27198 7.225 1.57131L4.775 5.23068L8.2 7.07158ZM17.875 13.178L15.65 9.8554L19.125 8.05939L20.725 10.4615C20.9083 10.716 21.0083 11.0003 21.025 11.3147C21.0417 11.629 20.9667 11.9208 20.8 12.1902C20.6333 12.4895 20.3875 12.729 20.0625 12.9086C19.7375 13.0882 19.3833 13.178 19 13.178H17.875ZM15 19.464L11 15.872L15 12.28V14.076H19.75L18.3 16.6802C18.1167 16.9796 17.8667 17.219 17.55 17.3986C17.2333 17.5782 16.8833 17.668 16.5 17.668H15V19.464ZM5.325 17.668C4.99167 17.668 4.6875 17.5895 4.4125 17.4323C4.1375 17.2752 3.93333 17.0694 3.8 16.8149C3.66667 16.5755 3.60417 16.3248 3.6125 16.0628C3.62083 15.8009 3.7 15.5577 3.85 15.3332L4.7 14.076H9V17.668H5.325ZM2.85 15.1087L1.225 12.1902C1.075 11.9208 1.00417 11.6327 1.0125 11.3259C1.02083 11.0191 1.11667 10.7309 1.3 10.4615L1.7 9.8554L0 8.93494L5.475 7.70019L6.85 12.6392L5.125 11.6963L2.85 15.1087ZM16.35 7.43079L10.875 6.19603L12.6 5.27558L9.475 0.605957H13C13.35 0.605957 13.6792 0.684532 13.9875 0.841683C14.2958 0.998834 14.5417 1.21211 14.725 1.48151L16.025 3.43467L17.725 2.49176L16.35 7.43079Z" fill="url(#paint0_linear_16_492)"/>
<defs>
<linearGradient id="paint0_linear_16_492" x1="10.5136" y1="0.605957" x2="10.5136" y2="19.464" gradientUnits="userSpaceOnUse">
<stop stop-color="#FF4343"/>
<stop offset="1" stop-color="#660000"/>
</linearGradient>
</defs>
</svg>
