<svg width="48" height="48" viewBox="0 0 48 48" fill="none" xmlns="http://www.w3.org/2000/svg">
<g clip-path="url(#clip0_54_542)">
<path d="M46.964 16.602C45.9931 16.063 44.769 16.4131 44.2302 17.3833C44.0059 17.7863 43.7674 18.1056 43.5254 18.3599C42.4328 19.5103 41.2686 19.3132 41.0365 19.2573C40.8529 19.2043 40.6631 19.1772 40.4735 19.1772H7.10212C6.21859 19.1772 5.45414 18.7901 4.86389 18.3597C4.13376 17.8271 3.67417 17.2267 3.65101 17.1957C3.01219 16.2948 1.76344 16.0767 0.857774 16.7122C-0.052092 17.3494 -0.273231 18.6036 0.363952 19.5125C0.460277 19.6501 2.58169 22.6103 6.08671 23.1172C5.14713 24.0211 4.55841 25.2867 4.55841 26.6908C4.55841 29.4261 6.78435 31.6519 9.51958 31.6519C12.2545 31.6519 14.4805 29.4269 14.4805 26.6908C14.4805 25.3299 13.9294 24.0967 13.0389 23.1986H34.1566C33.2663 24.0959 32.7148 25.3299 32.7148 26.6908C32.7148 29.4261 34.9414 31.6519 37.6759 31.6519C40.4113 31.6519 42.637 29.4269 42.637 26.6908C42.637 25.384 42.1266 24.1985 41.2983 23.3111C41.3488 23.3117 41.3936 23.3185 41.4454 23.3185C43.359 23.3185 46.0004 22.4809 47.7482 19.3355C48.2855 18.3651 47.9352 17.1409 46.964 16.602ZM9.51948 27.6295C9.00117 27.6295 8.58051 27.209 8.58051 26.6908C8.58051 26.173 9.00117 25.752 9.51948 25.752C10.0367 25.752 10.4582 26.173 10.4582 26.6908C10.4582 27.209 10.0376 27.6295 9.51948 27.6295ZM37.6749 27.6295C37.1575 27.6295 36.7362 27.209 36.7362 26.6908C36.7362 26.173 37.1575 25.752 37.6749 25.752C38.1928 25.752 38.6137 26.173 38.6137 26.6908C38.6137 27.209 38.1935 27.6295 37.6749 27.6295Z" fill="url(#paint0_linear_54_542)"/>
</g>
<defs>
<linearGradient id="paint0_linear_54_542" x1="24" y1="16.348" x2="24" y2="31.6519" gradientUnits="userSpaceOnUse">
<stop stop-color="#FF4343"/>
<stop offset="1" stop-color="#660000"/>
</linearGradient>
<clipPath id="clip0_54_542">
<rect width="48" height="48" fill="white"/>
</clipPath>
</defs>
</svg>
