<svg width="51" height="48" viewBox="0 0 51 48" fill="none" xmlns="http://www.w3.org/2000/svg">
<g clip-path="url(#clip0_54_606)">
<path d="M25.0666 6C25.4821 6 25.8806 6.15804 26.1744 6.43934C26.4682 6.72064 26.6333 7.10218 26.6333 7.5V12C26.6333 12.3978 26.4682 12.7794 26.1744 13.0607C25.8806 13.342 25.4821 13.5 25.0666 13.5C24.6511 13.5 24.2526 13.342 23.9588 13.0607C23.665 12.7794 23.4999 12.3978 23.4999 12V7.5C23.4999 7.10218 23.665 6.72064 23.9588 6.43934C24.2526 6.15804 24.6511 6 25.0666 6ZM11.6935 11.196C11.9873 10.9148 12.3857 10.7568 12.8012 10.7568C13.2166 10.7568 13.615 10.9148 13.9088 11.196L16.7758 13.938C17.07 14.2197 17.2352 14.6017 17.2352 15C17.2352 15.3983 17.07 15.7803 16.7758 16.062C16.4816 16.3437 16.0826 16.5019 15.6666 16.5019C15.2506 16.5019 14.8516 16.3437 14.5574 16.062L11.6935 13.317C11.3998 13.0357 11.2348 12.6542 11.2348 12.2565C11.2348 11.8588 11.3998 11.4773 11.6935 11.196ZM6.2666 24C6.2666 23.6022 6.43166 23.2206 6.72547 22.9393C7.01927 22.658 7.41776 22.5 7.83327 22.5H12.8027C13.2182 22.5 13.6167 22.658 13.9105 22.9393C14.2043 23.2206 14.3694 23.6022 14.3694 24C14.3694 24.3978 14.2043 24.7794 13.9105 25.0607C13.6167 25.342 13.2182 25.5 12.8027 25.5H7.83327C7.41776 25.5 7.01927 25.342 6.72547 25.0607C6.43166 24.7794 6.2666 24.3978 6.2666 24ZM36.0333 24C36.0333 23.6022 36.1983 23.2206 36.4921 22.9393C36.7859 22.658 37.1844 22.5 37.5999 22.5H42.2999C42.7154 22.5 43.1139 22.658 43.4077 22.9393C43.7015 23.2206 43.8666 23.6022 43.8666 24C43.8666 24.3978 43.7015 24.7794 43.4077 25.0607C43.1139 25.342 42.7154 25.5 42.2999 25.5H37.5999C37.1844 25.5 36.7859 25.342 36.4921 25.0607C36.1983 24.7794 36.0333 24.3978 36.0333 24ZM38.3958 11.262C38.1784 11.0559 37.8881 10.9354 37.5824 10.9243C37.2766 10.9132 36.9776 11.0123 36.7445 11.202L23.6472 21.93C23.3455 22.1773 23.1011 22.4822 22.9297 22.8252C22.7582 23.1681 22.6635 23.5416 22.6515 23.9217C22.6396 24.3017 22.7107 24.68 22.8603 25.0322C23.0099 25.3844 23.2347 25.7029 23.5203 25.9671C23.8059 26.2313 24.146 26.4355 24.5188 26.5665C24.8916 26.6976 25.2889 26.7526 25.6852 26.7281C26.0815 26.7037 26.4681 26.6002 26.8202 26.4243C27.1723 26.2485 27.4822 26.0042 27.7299 25.707L38.4898 12.816C38.6763 12.5914 38.7702 12.309 38.7534 12.0224C38.7366 11.7359 38.6105 11.4653 38.3989 11.262H38.3958Z" fill="url(#paint0_linear_54_606)"/>
<path fill-rule="evenodd" clip-rule="evenodd" d="M20.8805 47.667C17.6341 47.1406 14.5279 46.0072 11.739 44.3315C8.95018 42.6558 6.53337 40.4705 4.62658 37.9005C0.775655 32.7102 -0.764052 26.2678 0.34618 19.9905C1.45641 13.7132 5.12564 8.1153 10.5467 4.42824C15.9677 0.741179 22.6965 -0.733009 29.2527 0.329979C35.8094 1.39297 41.6565 4.90621 45.5078 10.0968C49.359 15.2875 50.8988 21.7303 49.7886 28.008C48.6784 34.2857 45.009 39.8839 39.5877 43.5713C34.1663 47.2586 27.4372 48.733 20.8805 47.67V47.667ZM6.26348 34.818C11.978 31.653 18.4649 29.9908 25.0666 30C31.9161 30 38.3394 31.755 43.8697 34.818C45.8684 31.6315 46.948 27.9942 46.9981 24.2776C47.0483 20.5609 46.0672 16.8982 44.1552 13.6633C42.2431 10.4285 39.4686 7.73748 36.115 5.86516C32.7613 3.99285 28.9487 3.00632 25.0666 3.00632C21.1845 3.00632 17.3719 3.99285 14.0183 5.86516C10.6646 7.73748 7.8901 10.4285 5.97805 13.6633C4.06601 16.8982 3.08496 20.5609 3.13511 24.2776C3.18526 27.9942 4.2648 31.6315 6.26348 34.818Z" fill="url(#paint1_linear_54_606)"/>
</g>
<defs>
<linearGradient id="paint0_linear_54_606" x1="25.0666" y1="6" x2="25.0666" y2="26.7338" gradientUnits="userSpaceOnUse">
<stop stop-color="#FF4343"/>
<stop offset="1" stop-color="#660000"/>
</linearGradient>
<linearGradient id="paint1_linear_54_606" x1="25.0674" y1="-0.00708008" x2="25.0674" y2="48.007" gradientUnits="userSpaceOnUse">
<stop stop-color="#FF4343"/>
<stop offset="1" stop-color="#660000"/>
</linearGradient>
<clipPath id="clip0_54_606">
<rect width="50.1333" height="48" fill="white"/>
</clipPath>
</defs>
</svg>
