<svg width="28" height="28" viewBox="0 0 28 28" fill="none" xmlns="http://www.w3.org/2000/svg">
<path d="M22.435 17.8038L19.4712 17.465C19.1229 17.4242 18.7699 17.4628 18.4387 17.578C18.1075 17.6932 17.8066 17.8819 17.5588 18.13L15.4112 20.2762C12.0998 18.5918 9.40817 15.9002 7.7238 12.5888L9.8812 10.43C10.3838 9.9288 10.6288 9.2288 10.5462 8.5162L10.2088 5.5762C10.1425 5.00697 9.86918 4.482 9.4409 4.10122C9.01262 3.72044 8.45928 3.51045 7.8862 3.5112H5.8688C4.55 3.5112 3.4538 4.6088 3.535 5.9262C4.1538 15.89 12.1212 23.8462 22.0738 24.465C23.3912 24.5462 24.4888 23.45 24.4888 22.1312V20.1138C24.4917 19.5432 24.2836 18.9917 23.9045 18.5653C23.5253 18.1389 23.002 17.8677 22.435 17.8038Z" fill="url(#paint0_linear_55_974)"/>
<defs>
<linearGradient id="paint0_linear_55_974" x1="14.0098" y1="3.5112" x2="14.0098" y2="24.4692" gradientUnits="userSpaceOnUse">
<stop stop-color="#FF4343"/>
<stop offset="1" stop-color="#660000"/>
</linearGradient>
</defs>
</svg>
