<svg width="42" height="30" viewBox="0 0 42 30" fill="none" xmlns="http://www.w3.org/2000/svg">
<path d="M41.1215 4.68541C40.8842 3.77933 40.4163 2.95235 39.7645 2.28729C39.1129 1.62222 38.3002 1.14242 37.408 0.895929C34.1338 -2.38419e-07 21 0 21 0C21 0 7.86625 -2.38419e-07 4.59025 0.895929C3.69847 1.14286 2.88627 1.62284 2.23489 2.28784C1.58351 2.95287 1.11579 3.77962 0.8785 4.68541C0 8.02781 0 15 0 15C0 15 0 21.9722 0.8785 25.3146C1.11578 26.2208 1.5837 27.0477 2.23544 27.7127C2.88716 28.3778 3.69981 28.8576 4.592 29.1041C7.86625 30 21 30 21 30C21 30 34.1338 30 37.4098 29.1041C38.302 28.8578 39.1147 28.378 39.7665 27.713C40.4183 27.0479 40.8861 26.2208 41.1233 25.3146C42 21.9722 42 15 42 15C42 15 42 8.02781 41.1215 4.68541ZM16.7038 21.33V8.67008L27.6815 15L16.7038 21.33Z" fill="white"/>
</svg>
