<svg width="24" height="24" viewBox="0 0 24 24" fill="none" xmlns="http://www.w3.org/2000/svg">
<path d="M20.0005 3.9996H3.99969C2.90049 3.9996 2.01009 4.8996 2.01009 6L2.00049 18C2.00049 19.1004 2.90049 20.0004 3.99969 20.0004H20.0005C21.0997 20.0004 21.9997 19.1004 21.9997 18V6C21.9997 4.8996 21.0997 3.9996 20.0005 3.9996ZM19.5997 8.25L12.5305 12.6708C12.371 12.769 12.1874 12.821 12.0001 12.821C11.8128 12.821 11.6292 12.769 11.4697 12.6708L4.40049 8.25C4.30161 8.19301 4.21523 8.11668 4.14651 8.02557C4.07778 7.93447 4.02811 7.83044 4.00047 7.71972C3.97282 7.60899 3.96777 7.49383 3.98561 7.38111C4.00345 7.26839 4.04382 7.16042 4.10431 7.06364C4.16479 6.96686 4.24416 6.88326 4.33766 6.81783C4.43116 6.7524 4.53689 6.70648 4.64854 6.6828C4.76018 6.65913 4.87545 6.65819 4.98746 6.68005C5.09947 6.7019 5.20593 6.7461 5.30049 6.81L12.0001 11.0004L18.6997 6.81C18.7942 6.7461 18.9007 6.7019 19.0127 6.68005C19.1247 6.65819 19.24 6.65913 19.3516 6.6828C19.4633 6.70648 19.569 6.7524 19.6625 6.81783C19.756 6.88326 19.8354 6.96686 19.8959 7.06364C19.9564 7.16042 19.9967 7.26839 20.0146 7.38111C20.0324 7.49383 20.0274 7.60899 19.9997 7.71972C19.9721 7.83044 19.9224 7.93447 19.8537 8.02557C19.7849 8.11668 19.6986 8.19301 19.5997 8.25Z" fill="url(#paint0_linear_55_972)"/>
<defs>
<linearGradient id="paint0_linear_55_972" x1="12.0001" y1="3.9996" x2="12.0001" y2="20.0004" gradientUnits="userSpaceOnUse">
<stop stop-color="#FF4343"/>
<stop offset="1" stop-color="#660000"/>
</linearGradient>
</defs>
</svg>
