<svg width="28" height="28" viewBox="0 0 28 28" fill="none" xmlns="http://www.w3.org/2000/svg">
<path d="M13.9998 2.3338C9.09982 2.3338 4.66602 6.09 4.66602 11.9C4.66602 15.61 7.52482 19.9738 13.2298 25.0012C13.4454 25.1872 13.7207 25.2896 14.0054 25.2896C14.2902 25.2896 14.5654 25.1872 14.781 25.0012C20.4748 19.9738 23.3336 15.61 23.3336 11.9C23.3336 6.09 18.8998 2.3338 13.9998 2.3338ZM13.9998 14C12.716 14 11.666 12.95 11.666 11.6662C11.666 10.3824 12.716 9.3324 13.9998 9.3324C15.2836 9.3324 16.3336 10.3824 16.3336 11.6662C16.3336 12.95 15.2836 14 13.9998 14Z" fill="url(#paint0_linear_55_970)"/>
<defs>
<linearGradient id="paint0_linear_55_970" x1="13.9998" y1="2.3338" x2="13.9998" y2="25.2896" gradientUnits="userSpaceOnUse">
<stop stop-color="#FF4343"/>
<stop offset="1" stop-color="#660000"/>
</linearGradient>
</defs>
</svg>
