<svg width="154" height="32" viewBox="0 0 154 32" fill="none" xmlns="http://www.w3.org/2000/svg">
<g clip-path="url(#clip0_12_222)">
<path d="M5.6 11.4374C6.32 10.3363 7.30667 9.44166 8.56 8.75348C9.84 8.06532 11.2933 7.72122 12.92 7.72122C14.8133 7.72122 16.52 8.20295 18.04 9.16639C19.5867 10.1298 20.8 11.5062 21.68 13.2954C22.5867 15.0572 23.04 17.1079 23.04 19.4477C23.04 21.7875 22.5867 23.8657 21.68 25.6825C20.8 27.4717 19.5867 28.8619 18.04 29.8528C16.52 30.8438 14.8133 31.3393 12.92 31.3393C11.2667 31.3393 9.81333 31.009 8.56 30.3483C7.33333 29.6601 6.34667 28.7793 5.6 27.7058V30.9677H0V0.412842H5.6V11.4374ZM17.32 19.4477C17.32 18.0714 17.04 16.8877 16.48 15.8967C15.9467 14.8782 15.2267 14.1075 14.32 13.5845C13.44 13.0614 12.48 12.7999 11.44 12.7999C10.4267 12.7999 9.46667 13.0752 8.56 13.6258C7.68 14.1488 6.96 14.9195 6.4 15.938C5.86667 16.9565 5.6 18.154 5.6 19.5303C5.6 20.9066 5.86667 22.104 6.4 23.1225C6.96 24.1411 7.68 24.9256 8.56 25.4761C9.46667 25.9991 10.4267 26.2606 11.44 26.2606C12.48 26.2606 13.44 25.9853 14.32 25.4348C15.2267 24.8843 15.9467 24.0998 16.48 23.0812C17.04 22.0627 17.32 20.8516 17.32 19.4477Z" fill="black"/>
<path d="M29.9094 0.412842V30.9677H24.3094V0.412842H29.9094Z" fill="black"/>
<path d="M39.9622 31.2651C38.2555 31.2651 36.7195 30.8797 35.3542 30.1089C33.9889 29.3162 32.9115 28.2041 32.1222 26.7727C31.3542 25.3412 30.9702 23.6896 30.9702 21.8178C30.9702 19.946 31.3649 18.2944 32.1542 16.863C32.9649 15.4316 34.0635 14.3306 35.4502 13.5598C36.8369 12.767 38.3835 12.3706 40.0902 12.3706C41.7969 12.3706 43.3435 12.767 44.7302 13.5598C46.1169 14.3306 47.2049 15.4316 47.9942 16.863C48.8049 18.2944 49.2102 19.946 49.2102 21.8178C49.2102 23.6896 48.7942 25.3412 47.9622 26.7727C47.1515 28.2041 46.0422 29.3162 44.6342 30.1089C43.2475 30.8797 41.6902 31.2651 39.9622 31.2651ZM39.9622 27.2351C40.7729 27.2351 41.5302 27.0369 42.2342 26.6405C42.9595 26.2222 43.5355 25.6055 43.9622 24.7907C44.3889 23.976 44.6022 22.985 44.6022 21.8178C44.6022 20.0782 44.1542 18.7458 43.2582 17.8209C42.3835 16.874 41.3062 16.4005 40.0262 16.4005C38.7462 16.4005 37.6689 16.874 36.7942 17.8209C35.9409 18.7458 35.5142 20.0782 35.5142 21.8178C35.5142 23.5575 35.9302 24.9009 36.7622 25.8478C37.6155 26.7727 38.6822 27.2351 39.9622 27.2351Z" fill="black"/>
<path d="M78.32 31.2651C76.6133 31.2651 75.0773 30.8797 73.712 30.1089C72.3467 29.3162 71.2693 28.2041 70.48 26.7727C69.712 25.3412 69.328 23.6896 69.328 21.8178C69.328 19.946 69.7227 18.2944 70.512 16.863C71.3227 15.4316 72.4213 14.3306 73.808 13.5598C75.1947 12.767 76.7413 12.3706 78.448 12.3706C80.1547 12.3706 81.7013 12.767 83.088 13.5598C84.4747 14.3306 85.5627 15.4316 86.352 16.863C87.1627 18.2944 87.568 19.946 87.568 21.8178C87.568 23.6896 87.152 25.3412 86.32 26.7727C85.5093 28.2041 84.4 29.3162 82.992 30.1089C81.6053 30.8797 80.048 31.2651 78.32 31.2651ZM78.32 27.2351C79.1307 27.2351 79.888 27.0369 80.592 26.6405C81.3173 26.2222 81.8933 25.6055 82.32 24.7907C82.7467 23.976 82.96 22.985 82.96 21.8178C82.96 20.0782 82.512 18.7458 81.616 17.8209C80.7413 16.874 79.664 16.4005 78.384 16.4005C77.104 16.4005 76.0267 16.874 75.152 17.8209C74.2987 18.7458 73.872 20.0782 73.872 21.8178C73.872 23.5575 74.288 24.9009 75.12 25.8478C75.9733 26.7727 77.04 27.2351 78.32 27.2351Z" fill="black"/>
<path d="M116.686 7.76257C119.406 7.76257 121.593 8.62967 123.246 10.3639C124.926 12.0705 125.766 14.4653 125.766 17.5484V30.9677H120.166V18.3329C120.166 16.5437 119.726 15.1811 118.846 14.2452C117.966 13.2818 116.766 12.8 115.246 12.8C113.726 12.8 112.513 13.2818 111.606 14.2452C110.726 15.1811 110.286 16.5437 110.286 18.3329V30.9677H104.686V18.3329C104.686 16.5437 104.246 15.1811 103.366 14.2452C102.486 13.2818 101.286 12.8 99.7663 12.8C98.2196 12.8 96.9929 13.2818 96.0863 14.2452C95.2063 15.1811 94.7663 16.5437 94.7663 18.3329V30.9677H89.1663V8.0929H94.7663V10.8594C95.4863 9.89591 96.4063 9.13892 97.5263 8.58838C98.6729 8.03785 99.9262 7.76257 101.286 7.76257C103.02 7.76257 104.566 8.14796 105.926 8.9187C107.286 9.66193 108.34 10.7355 109.086 12.1394C109.806 10.8181 110.846 9.75828 112.206 8.95999C113.593 8.16172 115.086 7.76257 116.686 7.76257Z" fill="black"/>
<path d="M129.4 2.14709H135.28L130.96 12.5523H127.12L129.4 2.14709Z" fill="black"/>
<path d="M144.976 31.3394C143.163 31.3394 141.536 31.0091 140.096 30.3484C138.656 29.6602 137.509 28.7381 136.656 27.582C135.829 26.4258 135.376 25.1458 135.296 23.742H140.936C141.043 24.6228 141.456 25.3523 142.176 25.9304C142.923 26.5084 143.843 26.7975 144.936 26.7975C146.003 26.7975 146.829 26.5773 147.416 26.1368C148.029 25.6963 148.336 25.1321 148.336 24.4439C148.336 23.7007 147.963 23.1502 147.216 22.7923C146.496 22.407 145.336 21.994 143.736 21.5536C142.083 21.1407 140.723 20.714 139.656 20.2736C138.616 19.8331 137.709 19.1587 136.936 18.2504C136.189 17.342 135.816 16.117 135.816 14.5755C135.816 13.3092 136.163 12.1531 136.856 11.1071C137.576 10.0611 138.589 9.2353 139.896 8.6297C141.229 8.02412 142.789 7.72131 144.576 7.72131C147.216 7.72131 149.323 8.40949 150.896 9.78583C152.469 11.1347 153.336 12.9652 153.496 15.2775H148.136C148.056 14.3691 147.683 13.6534 147.016 13.1304C146.376 12.5799 145.509 12.3046 144.416 12.3046C143.403 12.3046 142.616 12.4973 142.056 12.8826C141.523 13.268 141.256 13.8047 141.256 14.4929C141.256 15.2637 141.629 15.8555 142.376 16.2684C143.123 16.6538 144.283 17.0529 145.856 17.4658C147.456 17.8787 148.776 18.3054 149.816 18.7458C150.856 19.1863 151.749 19.8744 152.496 20.8104C153.269 21.7187 153.669 22.9299 153.696 24.4439C153.696 25.7652 153.336 26.9489 152.616 27.9949C151.923 29.0409 150.909 29.8667 149.576 30.4723C148.269 31.0504 146.736 31.3394 144.976 31.3394Z" fill="black"/>
<path d="M32.24 0C32.24 3.95699 34.24 11.6645 42.24 10.8387C50.24 10.0129 67.9067 10.4947 75.74 10.8387C78.9067 11.0108 85.24 9.08387 85.24 0" stroke="black" stroke-width="4"/>
</g>
<defs>
<clipPath id="clip0_12_222">
<rect width="154" height="32" fill="white"/>
</clipPath>
</defs>
</svg>
