<svg width="32" height="32" viewBox="0 0 32 32" fill="none" xmlns="http://www.w3.org/2000/svg">
<g clip-path="url(#clip0_76_2084)">
<circle cx="16" cy="16" r="16" fill="black"/>
<path d="M13.1597 9.70361C13.566 9.13394 14.1227 8.67112 14.8299 8.31508C15.5521 7.95906 16.3721 7.78104 17.2899 7.78104C18.3582 7.78104 19.3212 8.03026 20.1788 8.5287C21.0515 9.02715 21.7361 9.73923 22.2326 10.6649C22.7442 11.5763 23 12.6373 23 13.8478C23 15.0583 22.7442 16.1335 22.2326 17.0734C21.7361 17.9991 21.0515 18.7183 20.1788 19.231C19.3212 19.7437 18.3582 20 17.2899 20C16.3571 20 15.537 19.8291 14.8299 19.4873C14.1377 19.1313 13.581 18.6756 13.1597 18.1202V19.8077H10V4H13.1597V9.70361ZM19.7726 13.8478C19.7726 13.1358 19.6146 12.5234 19.2986 12.0107C18.9977 11.4837 18.5915 11.085 18.0799 10.8144C17.5833 10.5438 17.0417 10.4085 16.4549 10.4085C15.8831 10.4085 15.3414 10.551 14.8299 10.8358C14.3333 11.1064 13.9271 11.5051 13.6111 12.032C13.3102 12.559 13.1597 13.1785 13.1597 13.8905C13.1597 14.6026 13.3102 15.2221 13.6111 15.749C13.9271 16.2759 14.3333 16.6818 14.8299 16.9666C15.3414 17.2372 15.8831 17.3725 16.4549 17.3725C17.0417 17.3725 17.5833 17.2301 18.0799 16.9453C18.5915 16.6605 18.9977 16.2546 19.2986 15.7276C19.6146 15.2007 19.7726 14.5741 19.7726 13.8478Z" fill="#FF4343"/>
<path d="M28.4388 19.1494C27.9129 18.8324 27.2498 19.0382 26.958 19.6088C26.8365 19.8458 26.7073 20.0336 26.5763 20.1831C25.9844 20.8597 25.3538 20.7438 25.2281 20.7109C25.1286 20.6798 25.0258 20.6638 24.9231 20.6638H6.84698C6.3684 20.6638 5.95432 20.4362 5.6346 20.1831C5.23912 19.8698 4.99017 19.5167 4.97763 19.4985C4.6316 18.9687 3.95519 18.8405 3.46463 19.2142C2.97178 19.5889 2.852 20.3265 3.19714 20.861C3.24932 20.9419 4.39841 22.6827 6.29696 22.9808C5.78802 23.5124 5.46914 24.2567 5.46914 25.0824C5.46914 26.691 6.67485 28 8.15644 28C9.63785 28 10.8436 26.6915 10.8436 25.0824C10.8436 24.2821 10.5451 23.5569 10.0628 23.0287H21.5014C21.0192 23.5564 20.7205 24.2821 20.7205 25.0824C20.7205 26.691 21.9266 28 23.4078 28C24.8894 28 26.095 26.6915 26.095 25.0824C26.095 24.3139 25.8185 23.6167 25.3699 23.0949C25.3972 23.0952 25.4215 23.0992 25.4496 23.0992C26.4861 23.0992 27.9168 22.6067 28.8636 20.7569C29.1546 20.1862 28.9649 19.4663 28.4388 19.1494ZM8.15638 25.6345C7.87563 25.6345 7.64777 25.3872 7.64777 25.0824C7.64777 24.7779 7.87563 24.5303 8.15638 24.5303C8.43652 24.5303 8.66488 24.7779 8.66488 25.0824C8.66488 25.3872 8.43702 25.6345 8.15638 25.6345ZM23.4072 25.6345C23.127 25.6345 22.8988 25.3872 22.8988 25.0824C22.8988 24.7779 23.127 24.5303 23.4072 24.5303C23.6877 24.5303 23.9157 24.7779 23.9157 25.0824C23.9157 25.3872 23.6881 25.6345 23.4072 25.6345Z" fill="url(#paint0_linear_76_2084)"/>
</g>
<defs>
<linearGradient id="paint0_linear_76_2084" x1="16" y1="19" x2="16" y2="28" gradientUnits="userSpaceOnUse">
<stop stop-color="#FF5B5B"/>
<stop offset="1" stop-color="#AC0000"/>
</linearGradient>
<clipPath id="clip0_76_2084">
<rect width="32" height="32" fill="white"/>
</clipPath>
</defs>
</svg>
