<svg width="28" height="28" viewBox="0 0 28 28" fill="none" xmlns="http://www.w3.org/2000/svg">
<path d="M23.334 4.6662H4.66638C3.38398 4.6662 2.34518 5.7162 2.34518 7L2.33398 21C2.33398 22.2838 3.38398 23.3338 4.66638 23.3338H23.334C24.6164 23.3338 25.6664 22.2838 25.6664 21V7C25.6664 5.7162 24.6164 4.6662 23.334 4.6662ZM22.8664 9.625L14.619 14.7826C14.4329 14.8972 14.2187 14.9578 14.0002 14.9578C13.7817 14.9578 13.5675 14.8972 13.3814 14.7826L5.13398 9.625C5.01863 9.55851 4.91785 9.46946 4.83767 9.36316C4.75749 9.25687 4.69954 9.13551 4.66729 9.00633C4.63504 8.87715 4.62915 8.7428 4.64996 8.61129C4.67078 8.47978 4.71787 8.35381 4.78844 8.24091C4.859 8.128 4.9516 8.03047 5.06068 7.95413C5.16977 7.87779 5.29312 7.82422 5.42337 7.7966C5.55362 7.76898 5.6881 7.76789 5.81878 7.79339C5.94946 7.81888 6.07367 7.87045 6.18398 7.945L14.0002 12.8338L21.8164 7.945C21.9267 7.87045 22.0509 7.81888 22.1816 7.79339C22.3123 7.76789 22.4467 7.76898 22.577 7.7966C22.7072 7.82422 22.8306 7.87779 22.9397 7.95413C23.0488 8.03047 23.1414 8.128 23.2119 8.24091C23.2825 8.35381 23.3296 8.47978 23.3504 8.61129C23.3712 8.7428 23.3653 8.87715 23.3331 9.00633C23.3008 9.13551 23.2429 9.25687 23.1627 9.36316C23.0825 9.46946 22.9817 9.55851 22.8664 9.625Z" fill="url(#paint0_linear_55_972)"/>
<defs>
<linearGradient id="paint0_linear_55_972" x1="14.0002" y1="4.6662" x2="14.0002" y2="23.3338" gradientUnits="userSpaceOnUse">
<stop stop-color="#FF4343"/>
<stop offset="1" stop-color="#660000"/>
</linearGradient>
</defs>
</svg>
