<svg width="42" height="42" viewBox="0 0 42 42" fill="none" xmlns="http://www.w3.org/2000/svg">
<g clip-path="url(#clip0_24_596)">
<path d="M21 0C15.295 0 14.5828 0.02625 12.3428 0.126C10.1063 0.231 8.58375 0.58275 7.245 1.1025C5.86425 1.638 4.69175 2.35725 3.5245 3.5245C2.35725 4.69175 1.63625 5.8625 1.1025 7.245C0.58275 8.58375 0.22925 10.1063 0.126 12.3428C0.021 14.5828 0 15.295 0 21C0 26.705 0.02625 27.4172 0.126 29.6573C0.231 31.892 0.58275 33.4162 1.1025 34.755C1.638 36.134 2.35725 37.3082 3.5245 38.4755C4.69175 39.641 5.8625 40.3637 7.245 40.8975C8.5855 41.4155 10.108 41.7707 12.3428 41.874C14.5828 41.979 15.295 42 21 42C26.705 42 27.4172 41.9737 29.6573 41.874C31.892 41.769 33.4162 41.4155 34.755 40.8975C36.134 40.362 37.3082 39.641 38.4755 38.4755C39.641 37.3082 40.3637 36.1393 40.8975 34.755C41.4155 33.4162 41.7707 31.892 41.874 29.6573C41.979 27.4172 42 26.705 42 21C42 15.295 41.9737 14.5828 41.874 12.3428C41.769 10.108 41.4155 8.582 40.8975 7.245C40.362 5.86425 39.641 4.69175 38.4755 3.5245C37.3082 2.35725 36.1393 1.63625 34.755 1.1025C33.4162 0.58275 31.892 0.22925 29.6573 0.126C27.4172 0.021 26.705 0 21 0ZM21 3.78C26.6053 3.78 27.2737 3.808 29.4875 3.90425C31.535 4.0005 32.6462 4.34 33.3848 4.6305C34.3682 5.01025 35.0647 5.46525 35.8033 6.1985C36.5365 6.9335 36.9915 7.63175 37.3712 8.61525C37.6583 9.35375 38.0012 10.465 38.094 12.5125C38.1938 14.728 38.2165 15.393 38.2165 21C38.2165 26.607 38.1902 27.2737 38.087 29.4875C37.9802 31.535 37.639 32.6462 37.3502 33.3848C36.9583 34.3682 36.512 35.0647 35.777 35.8033C35.0437 36.5365 34.335 36.9915 33.362 37.3712C32.627 37.6583 31.4983 38.0012 29.4508 38.094C27.2212 38.1938 26.565 38.2165 20.9475 38.2165C15.3283 38.2165 14.672 38.1902 12.4442 38.087C10.395 37.9802 9.26625 37.639 8.53125 37.3502C7.5355 36.9583 6.85125 36.512 6.118 35.777C5.38125 35.0437 4.9105 34.335 4.543 33.362C4.25425 32.627 3.91475 31.4983 3.808 29.4508C3.72925 27.2458 3.70125 26.565 3.70125 20.9737C3.70125 15.3808 3.72925 14.6983 3.808 12.467C3.91475 10.4195 4.25425 9.2925 4.543 8.5575C4.9105 7.56 5.38125 6.8775 6.118 6.14075C6.85125 5.4075 7.5355 4.935 8.53125 4.56925C9.26625 4.27875 10.3705 3.9375 12.418 3.8325C14.6492 3.75375 15.3055 3.7275 20.9212 3.7275L21 3.78ZM21 10.2165C15.0413 10.2165 10.2165 15.0465 10.2165 21C10.2165 26.9587 15.0465 31.7835 21 31.7835C26.9587 31.7835 31.7835 26.9535 31.7835 21C31.7835 15.0413 26.9535 10.2165 21 10.2165ZM21 28C17.1325 28 14 24.8675 14 21C14 17.1325 17.1325 14 21 14C24.8675 14 28 17.1325 28 21C28 24.8675 24.8675 28 21 28ZM34.7305 9.79125C34.7305 11.1825 33.6 12.3113 32.2105 12.3113C30.8192 12.3113 29.6905 11.1808 29.6905 9.79125C29.6905 8.40175 30.821 7.273 32.2105 7.273C33.5983 7.27125 34.7305 8.40175 34.7305 9.79125Z" fill="white"/>
</g>
<defs>
<clipPath id="clip0_24_596">
<rect width="42" height="42" fill="white"/>
</clipPath>
</defs>
</svg>
