<svg width="48" height="48" viewBox="0 0 48 48" fill="none" xmlns="http://www.w3.org/2000/svg">
<g clip-path="url(#clip0_54_577)">
<path d="M36.3765 32.0537L39.6679 34.248C39.987 34.4607 40.3753 34.5431 40.7532 34.4784C41.1312 34.4137 41.4699 34.2067 41.7 33.9L46.2 27.9L43.8 26.1L40.1511 30.9655L36.8321 28.752C36.508 28.5359 36.1125 28.4543 35.7293 28.5245C35.3462 28.5948 35.0054 28.8113 34.779 29.1283L30 35.8184V24H27V39C27.0009 39.7954 27.3173 40.5579 27.8797 41.1203C28.4421 41.6827 29.2046 41.9991 30 42H45V39H31.4151L36.3765 32.0537Z" fill="url(#paint0_linear_54_577)"/>
<path d="M24 31.5H3V34.5H24V31.5Z" fill="url(#paint1_linear_54_577)"/>
<path d="M24 39H3V42H24V39Z" fill="#660000"/>
<path d="M16.5 24V16.5H18C19.5907 16.4982 21.1158 15.8654 22.2406 14.7406C23.3654 13.6158 23.9982 12.0907 24 10.5V6H19.5C17.9642 6.00246 16.4884 6.597 15.3798 7.6599C14.6029 6.24965 13.4621 5.07349 12.0762 4.25392C10.6904 3.43435 9.11008 3.00134 7.5 3H3V7.5C3.00262 9.88614 3.95167 12.1738 5.63893 13.8611C7.32619 15.5483 9.61386 16.4974 12 16.5H13.5V24H3V27H24V24H16.5ZM19.5 9H21V10.5C20.9992 11.2954 20.6829 12.058 20.1204 12.6204C19.558 13.1829 18.7954 13.4992 18 13.5H16.5V12C16.5008 11.2046 16.8171 10.442 17.3795 9.87951C17.942 9.31707 18.7046 9.00075 19.5 9ZM12 13.5C10.4093 13.4982 8.8842 12.8654 7.75938 11.7406C6.63455 10.6158 6.00183 9.09074 6 7.5V6H7.5C9.09075 6.00179 10.6158 6.6345 11.7407 7.75933C12.8655 8.88416 13.4982 10.4092 13.5 12V13.5H12Z" fill="#CC0000"/>
</g>
<defs>
<linearGradient id="paint0_linear_54_577" x1="36.6" y1="24" x2="36.6" y2="42" gradientUnits="userSpaceOnUse">
<stop stop-color="#FF4343"/>
<stop offset="1" stop-color="#660000"/>
</linearGradient>
<linearGradient id="paint1_linear_54_577" x1="13.5" y1="31.5" x2="13.5" y2="34.5" gradientUnits="userSpaceOnUse">
<stop stop-color="#FF4343"/>
<stop offset="1" stop-color="#660000"/>
</linearGradient>
<clipPath id="clip0_54_577">
<rect width="48" height="48" fill="white"/>
</clipPath>
</defs>
</svg>
