<svg width="28" height="28" viewBox="0 0 28 28" fill="none" xmlns="http://www.w3.org/2000/svg">
<path d="M14 28C21.732 28 28 21.732 28 14C28 6.26801 21.732 0 14 0C6.26801 0 0 6.26801 0 14C0 21.732 6.26801 28 14 28Z" fill="#BFBFBF"/>
<path d="M7 14H1.75V26.25H7V14Z" fill="#D9DCE1"/>
<path d="M14.875 9.625H9.625V26.25H14.875V9.625Z" fill="white"/>
<path d="M20.1249 1.22501L14.8049 7.87501H17.4999V26.25H22.7499V7.87501H25.4449L20.1249 1.22501Z" fill="url(#paint0_linear_42_124)"/>
<path d="M1.75 26.25H7V14H1.75V26.25ZM3.5 15.75H5.25V24.5H3.5V15.75ZM9.625 26.25H14.875V9.62501H9.625V26.25ZM11.375 11.375H13.125V24.5H11.375V11.375ZM20.125 1.22501L14.805 7.87501H17.5V26.25H22.75V7.87501H25.445L20.125 1.22501ZM21 6.12501V24.5H19.25V6.12501H18.445L20.125 4.02501L21.805 6.12501H21Z" fill="url(#paint1_linear_42_124)"/>
<defs>
<linearGradient id="paint0_linear_42_124" x1="20.1249" y1="1.22501" x2="20.1249" y2="26.25" gradientUnits="userSpaceOnUse">
<stop stop-color="#FF4343"/>
<stop offset="1" stop-color="#660000"/>
</linearGradient>
<linearGradient id="paint1_linear_42_124" x1="13.5975" y1="1.22501" x2="13.5975" y2="26.25" gradientUnits="userSpaceOnUse">
<stop stop-color="#FF4343"/>
<stop offset="1" stop-color="#660000"/>
</linearGradient>
</defs>
</svg>
