<svg width="20" height="10" viewBox="0 0 20 10" fill="none" xmlns="http://www.w3.org/2000/svg">
<path fill-rule="evenodd" clip-rule="evenodd" d="M13.8374 0.329094C14.2079 -0.0804444 14.8403 -0.112063 15.2499 0.258472L19.6709 4.25847C19.8805 4.44805 20 4.71744 20 5.00001C20 5.28258 19.8805 5.55196 19.6709 5.74154L15.2499 9.74154C14.8403 10.1121 14.2079 10.0805 13.8374 9.67092C13.4669 9.26138 13.4985 8.62901 13.908 8.25847L16.4042 6.00001H1C0.447715 6.00001 0 5.55229 0 5.00001C0 4.44772 0.447715 4.00001 1 4.00001H16.4042L13.908 1.74154C13.4985 1.37101 13.4669 0.738633 13.8374 0.329094Z" fill="#320000"/>
</svg>
