<svg width="173" height="55" viewBox="0 0 173 55" fill="none" xmlns="http://www.w3.org/2000/svg">
<path d="M169.266 0.912801C165.767 -1.02433 161.355 0.233703 159.413 3.72054C158.605 5.16897 157.745 6.31651 156.873 7.23021C152.935 11.3648 148.739 10.6563 147.902 10.4556C147.241 10.2652 146.557 10.1676 145.873 10.1676H25.5972C22.4128 10.1676 19.6576 8.77659 17.5302 7.22984C14.8987 5.31554 13.2423 3.15781 13.1588 3.04659C10.8564 -0.191288 6.35572 -0.974977 3.09156 1.3087C-0.187748 3.59864 -0.984768 8.10634 1.31174 11.3726C1.65891 11.8672 9.30484 22.5056 21.9375 24.3274C18.5511 27.576 16.4293 32.1242 16.4293 37.1703C16.4293 47.0007 24.4519 55 34.3101 55C44.1672 55 52.1902 47.0036 52.1902 37.1703C52.1902 32.2796 50.204 27.8478 46.9945 24.6198H123.106C119.897 27.8448 117.909 32.2796 117.909 37.1703C117.909 47.0007 125.934 55 135.79 55C145.649 55 153.671 47.0036 153.671 37.1703C153.671 32.474 151.831 28.2135 148.846 25.0242C149.028 25.0264 149.189 25.0507 149.376 25.0507C156.273 25.0507 165.793 22.0408 172.092 10.7366C174.029 7.24899 172.766 2.84956 169.266 0.912801ZM34.3098 40.5441C32.4417 40.5441 30.9256 39.0327 30.9256 37.1703C30.9256 35.3094 32.4417 33.7965 34.3098 33.7965C36.1738 33.7965 37.6932 35.3094 37.6932 37.1703C37.6932 39.0327 36.1771 40.5441 34.3098 40.5441ZM135.786 40.5441C133.922 40.5441 132.403 39.0327 132.403 37.1703C132.403 35.3094 133.922 33.7965 135.786 33.7965C137.653 33.7965 139.17 35.3094 139.17 37.1703C139.17 39.0327 137.656 40.5441 135.786 40.5441Z" fill="url(#paint0_linear_70_2081)"/>
<defs>
<linearGradient id="paint0_linear_70_2081" x1="86.5" y1="0" x2="86.5" y2="55" gradientUnits="userSpaceOnUse">
<stop stop-color="#FF4343"/>
<stop offset="1" stop-color="#660000"/>
</linearGradient>
</defs>
</svg>
