<svg width="19" height="21" viewBox="0 0 19 21" fill="none" xmlns="http://www.w3.org/2000/svg">
<path d="M9.5 20.0151C8.18333 20.0151 6.95 19.7906 5.8 19.3416C4.65 18.8926 3.64583 18.2827 2.7875 17.5119C1.92917 16.7411 1.25 15.8394 0.75 14.8067C0.25 13.774 0 12.6664 0 11.4841C0 10.3017 0.25 9.19414 0.75 8.16144C1.25 7.12874 1.92917 6.22699 2.7875 5.4562C3.64583 4.68542 4.65 4.07552 5.8 3.62652C6.95 3.17752 8.18333 2.95302 9.5 2.95302V0.708008L13.5 4.30002L9.5 7.89204V5.64703C7.7 5.64703 6.16667 6.21576 4.9 7.35324C3.63333 8.49071 3 9.86765 3 11.4841C3 12.4719 3.25417 13.3886 3.7625 14.2342C4.27083 15.0798 4.95 15.7645 5.8 16.2884C6.06667 15.8693 6.4625 15.5138 6.9875 15.222C7.5125 14.9301 8.11667 14.7468 8.8 14.672C8.75 14.3577 8.68333 14.0434 8.6 13.7291C8.51667 13.4148 8.41667 13.1229 8.3 12.8535C8.11667 12.9882 7.91667 13.093 7.7 13.1678C7.48333 13.2426 7.25 13.2801 7 13.2801C6.45 13.2801 5.97917 13.1042 5.5875 12.7525C5.19583 12.4008 5 11.978 5 11.4841V10.5861C5 10.3316 4.95417 10.0921 4.8625 9.86765C4.77083 9.64315 4.65 9.43361 4.5 9.23904C5.33333 9.22408 6.075 9.29143 6.725 9.44109C7.29167 9.5758 7.80833 9.79655 8.275 10.1034C8.74167 10.4102 8.98333 10.8704 9 11.4841C9 11.6188 8.9875 11.7422 8.9625 11.8545C8.9375 11.9667 8.89167 12.0827 8.825 12.2025C8.60833 12.0528 8.39167 11.9181 8.175 11.7984C7.95833 11.6786 7.73333 11.5739 7.5 11.4841C7.78333 11.6786 8.10833 11.978 8.475 12.3821C8.84167 12.7862 9.18333 13.2651 9.5 13.8189C9.83333 13.0855 10.25 12.3633 10.75 11.6524C11.25 10.9415 11.8333 10.2867 12.5 9.68805C12.1167 9.92751 11.75 10.1819 11.4 10.4513C11.05 10.7207 10.7083 11.0051 10.375 11.3045C10.2583 11.1398 10.1667 10.9565 10.1 10.7544C10.0333 10.5524 10 10.3466 10 10.137C10 9.50844 10.2417 8.97713 10.725 8.54309C11.2083 8.10906 11.8 7.89204 12.5 7.89204H13.5C13.8833 7.89204 14.2 7.84714 14.45 7.75734C14.7 7.66754 14.9083 7.56277 15.075 7.44304C15.2583 7.30834 15.4 7.15867 15.5 6.99403C15.5667 7.99681 15.5083 8.89481 15.325 9.68805C15.175 10.3615 14.8917 10.9789 14.475 11.5402C14.0583 12.1014 13.4 12.3821 12.5 12.3821C12.25 12.3821 12.0125 12.3521 11.7875 12.2923C11.5625 12.2324 11.3583 12.1501 11.175 12.0453C11.0583 12.3297 10.925 12.7076 10.775 13.179C10.625 13.6505 10.5083 14.1556 10.425 14.6944C11.0583 14.7992 11.6167 14.9938 12.1 15.2781C12.5833 15.5625 12.95 15.8992 13.2 16.2884C14.05 15.7645 14.7292 15.0836 15.2375 14.2454C15.7458 13.4073 16 12.4868 16 11.4841H19C19 12.6664 18.75 13.774 18.25 14.8067C17.75 15.8394 17.0708 16.7411 16.2125 17.5119C15.3542 18.2827 14.35 18.8926 13.2 19.3416C12.05 19.7906 10.8167 20.0151 9.5 20.0151Z" fill="url(#paint0_linear_16_493)"/>
<defs>
<linearGradient id="paint0_linear_16_493" x1="9.5" y1="0.708008" x2="9.5" y2="20.0151" gradientUnits="userSpaceOnUse">
<stop stop-color="#FF4343"/>
<stop offset="1" stop-color="#660000"/>
</linearGradient>
</defs>
</svg>
