<svg width="48" height="48" viewBox="0 0 48 48" fill="none" xmlns="http://www.w3.org/2000/svg">
<g clip-path="url(#clip0_54_561)">
<path d="M24 43C21.3667 43 18.9 42.5 16.6 41.5C14.3 40.5 12.2917 39.1417 10.575 37.425C8.85833 35.7083 7.5 33.7 6.5 31.4C5.5 29.1 5 26.6333 5 24C5 21.3667 5.5 18.9 6.5 16.6C7.5 14.3 8.85833 12.2917 10.575 10.575C12.2917 8.85833 14.3 7.5 16.6 6.5C18.9 5.5 21.3667 5 24 5V0L32 8L24 16V11C20.4 11 17.3333 12.2667 14.8 14.8C12.2667 17.3333 11 20.4 11 24C11 26.2 11.5083 28.2417 12.525 30.125C13.5417 32.0083 14.9 33.5333 16.6 34.7C17.1333 33.7667 17.925 32.975 18.975 32.325C20.025 31.675 21.2333 31.2667 22.6 31.1C22.5 30.4 22.3667 29.7 22.2 29C22.0333 28.3 21.8333 27.65 21.6 27.05C21.2333 27.35 20.8333 27.5833 20.4 27.75C19.9667 27.9167 19.5 28 19 28C17.9 28 16.9583 27.6083 16.175 26.825C15.3917 26.0417 15 25.1 15 24V22C15 21.4333 14.9083 20.9 14.725 20.4C14.5417 19.9 14.3 19.4333 14 19C15.6667 18.9667 17.15 19.1167 18.45 19.45C19.5833 19.75 20.6167 20.2417 21.55 20.925C22.4833 21.6083 22.9667 22.6333 23 24C23 24.3 22.975 24.575 22.925 24.825C22.875 25.075 22.7833 25.3333 22.65 25.6C22.2167 25.2667 21.7833 24.9667 21.35 24.7C20.9167 24.4333 20.4667 24.2 20 24C20.5667 24.4333 21.2167 25.1 21.95 26C22.6833 26.9 23.3667 27.9667 24 29.2C24.6667 27.5667 25.5 25.9583 26.5 24.375C27.5 22.7917 28.6667 21.3333 30 20C29.2333 20.5333 28.5 21.1 27.8 21.7C27.1 22.3 26.4167 22.9333 25.75 23.6C25.5167 23.2333 25.3333 22.825 25.2 22.375C25.0667 21.925 25 21.4667 25 21C25 19.6 25.4833 18.4167 26.45 17.45C27.4167 16.4833 28.6 16 30 16H32C32.7667 16 33.4 15.9 33.9 15.7C34.4 15.5 34.8167 15.2667 35.15 15C35.5167 14.7 35.8 14.3667 36 14C36.1333 16.2333 36.0167 18.2333 35.65 20C35.35 21.5 34.7833 22.875 33.95 24.125C33.1167 25.375 31.8 26 30 26C29.5 26 29.025 25.9333 28.575 25.8C28.125 25.6667 27.7167 25.4833 27.35 25.25C27.1167 25.8833 26.85 26.725 26.55 27.775C26.25 28.825 26.0167 29.95 25.85 31.15C27.1167 31.3833 28.2333 31.8167 29.2 32.45C30.1667 33.0833 30.9 33.8333 31.4 34.7C33.1 33.5333 34.4583 32.0167 35.475 30.15C36.4917 28.2833 37 26.2333 37 24H43C43 26.6333 42.5 29.1 41.5 31.4C40.5 33.7 39.1417 35.7083 37.425 37.425C35.7083 39.1417 33.7 40.5 31.4 41.5C29.1 42.5 26.6333 43 24 43Z" fill="url(#paint0_linear_54_561)"/>
</g>
<defs>
<linearGradient id="paint0_linear_54_561" x1="24" y1="0" x2="24" y2="43" gradientUnits="userSpaceOnUse">
<stop stop-color="#FF4343"/>
<stop offset="1" stop-color="#660000"/>
</linearGradient>
<clipPath id="clip0_54_561">
<rect width="48" height="48" fill="white"/>
</clipPath>
</defs>
</svg>
