<svg width="42" height="42" viewBox="0 0 42 42" fill="none" xmlns="http://www.w3.org/2000/svg">
<path d="M41.1215 10.8254C40.8842 9.9316 40.4163 9.11585 39.7646 8.45983C39.1129 7.8038 38.3002 7.33051 37.408 7.08737C34.1338 6.20361 21 6.20361 21 6.20361C21 6.20361 7.86625 6.20361 4.59025 7.08737C3.69847 7.33095 2.88627 7.8044 2.23489 8.46038C1.5835 9.11637 1.11579 9.93189 0.8785 10.8254C0 14.1224 0 20.9999 0 20.9999C0 20.9999 0 27.8774 0.8785 31.1744C1.11578 32.0682 1.5837 32.8839 2.23544 33.5399C2.88716 34.1959 3.69981 34.6692 4.592 34.9124C7.86625 35.7961 21 35.7961 21 35.7961C21 35.7961 34.1338 35.7961 37.4098 34.9124C38.302 34.6694 39.1147 34.1961 39.7665 33.5402C40.4183 32.884 40.8861 32.0682 41.1233 31.1744C42 27.8774 42 20.9999 42 20.9999C42 20.9999 42 14.1224 41.1215 10.8254ZM16.7038 27.2438V14.7559L27.6815 20.9999L16.7038 27.2438Z" fill="url(#paint0_linear_55_963)"/>
<defs>
<linearGradient id="paint0_linear_55_963" x1="21" y1="6.20361" x2="21" y2="35.7961" gradientUnits="userSpaceOnUse">
<stop stop-color="#FF4343"/>
<stop offset="1" stop-color="#660000"/>
</linearGradient>
</defs>
</svg>
