<svg xmlns="http://www.w3.org/2000/svg" width="861" height="266" fill="none"><g opacity=".3"><path fill="#242424" d="M31.31 95.073c4.024-9.152 9.54-16.589 16.548-22.31 7.157-5.72 15.282-8.58 24.377-8.58 10.585 0 20.127 4.004 28.625 12.013 8.647 8.009 15.431 19.45 20.351 34.323 5.069 14.644 7.604 31.691 7.604 51.14 0 19.45-2.535 36.725-7.604 51.827-4.92 14.873-11.704 26.429-20.351 34.666-8.498 8.238-18.04 12.356-28.626 12.356-9.243 0-17.369-2.746-24.376-8.237C41 246.55 35.484 239.228 31.31 230.304v27.115H0V3.432h31.31v91.641Zm65.525 66.586c0-11.44-1.566-21.28-4.697-29.517-2.982-8.467-7.007-14.873-12.076-19.221-4.92-4.348-10.287-6.521-16.102-6.521-5.665 0-11.033 2.288-16.102 6.864-4.92 4.348-8.945 10.755-12.076 19.221-2.982 8.467-4.473 18.42-4.473 29.861 0 11.44 1.491 21.394 4.473 29.86 3.13 8.467 7.156 14.988 12.076 19.564 5.07 4.348 10.437 6.522 16.102 6.522 5.815 0 11.182-2.289 16.102-6.865 5.07-4.576 9.094-11.097 12.076-19.564 3.131-8.466 4.697-18.534 4.697-30.204ZM167.221 3.432V257.42h-31.309V3.432h31.309ZM223.425 259.891c-9.542 0-18.13-3.203-25.763-9.611-7.633-6.59-13.657-15.833-18.07-27.732-4.293-11.899-6.44-25.628-6.44-41.187 0-15.56 2.206-29.289 6.619-41.187 4.533-11.899 10.675-21.051 18.428-27.459 7.753-6.589 16.4-9.884 25.942-9.884 9.542 0 18.189 3.295 25.942 9.884 7.752 6.408 13.835 15.56 18.248 27.459 4.533 11.898 6.799 25.627 6.799 41.187 0 15.559-2.326 29.288-6.978 41.187-4.532 11.899-10.734 21.142-18.606 27.732-7.753 6.408-16.46 9.611-26.121 9.611Zm0-33.499c4.533 0 8.767-1.648 12.703-4.943 4.055-3.477 7.275-8.603 9.661-15.376 2.385-6.773 3.578-15.01 3.578-24.712 0-14.461-2.505-25.536-7.514-33.225-4.891-7.871-10.914-11.807-18.07-11.807-7.156 0-13.18 3.936-18.07 11.807-4.771 7.689-7.156 18.764-7.156 33.225 0 14.461 2.326 25.627 6.977 33.498 4.771 7.689 10.735 11.533 17.891 11.533ZM437.88 259.891c-9.542 0-18.13-3.203-25.763-9.611-7.633-6.59-13.657-15.833-18.07-27.732-4.294-11.899-6.441-25.628-6.441-41.187 0-15.56 2.207-29.289 6.62-41.187 4.533-11.899 10.675-21.051 18.428-27.459 7.753-6.589 16.4-9.884 25.942-9.884 9.542 0 18.188 3.295 25.941 9.884 7.753 6.408 13.836 15.56 18.249 27.459 4.533 11.898 6.799 25.627 6.799 41.187 0 15.559-2.326 29.288-6.978 41.187-4.532 11.899-10.734 21.142-18.606 27.732-7.753 6.408-16.46 9.611-26.121 9.611Zm0-33.499c4.532 0 8.766-1.648 12.702-4.943 4.056-3.477 7.276-8.603 9.662-15.376 2.385-6.773 3.578-15.01 3.578-24.712 0-14.461-2.505-25.536-7.514-33.225-4.891-7.871-10.914-11.807-18.07-11.807-7.157 0-13.18 3.936-18.07 11.807-4.771 7.689-7.156 18.764-7.156 33.225 0 14.461 2.325 25.627 6.977 33.498 4.771 7.689 10.735 11.533 17.891 11.533ZM652.381 64.526c15.207 0 27.435 7.208 36.676 21.624 9.393 14.186 14.089 34.093 14.089 59.721v111.548h-31.309V152.392c0-14.873-2.46-26.199-7.38-33.979-4.92-8.008-11.629-12.013-20.127-12.013s-15.28 4.005-20.351 12.013c-4.92 7.78-7.38 19.106-7.38 33.979v105.027H585.29V152.392c0-14.873-2.46-26.199-7.38-33.979-4.92-8.008-11.629-12.013-20.126-12.013-8.647 0-15.505 4.005-20.574 12.013-4.92 7.78-7.38 19.106-7.38 33.979v105.027h-31.309V67.272h31.309v22.996c4.025-8.008 9.169-14.3 15.431-18.877 6.41-4.576 13.417-6.865 21.02-6.865 9.695 0 18.338 3.204 25.942 9.61 7.603 6.179 13.496 15.103 17.667 26.772 4.025-10.983 9.84-19.792 17.444-26.428 7.754-6.636 16.101-9.954 25.047-9.954ZM723.464 17.848h32.874l-24.153 86.493h-21.469l12.748-86.493ZM810.548 260.508c-10.137 0-19.233-2.745-27.284-8.237-8.051-5.721-14.464-13.386-19.233-22.996-4.623-9.611-7.156-20.251-7.603-31.92h31.532c.599 7.322 2.908 13.386 6.933 18.191 4.177 4.805 9.32 7.208 15.431 7.208 5.966 0 10.584-1.831 13.866-5.492 3.427-3.661 5.143-8.352 5.143-14.072 0-6.178-2.085-10.754-6.262-13.729-4.025-3.204-10.511-6.636-19.456-10.297-9.242-3.432-16.845-6.979-22.811-10.64-5.814-3.662-10.885-9.267-15.207-16.818-4.177-7.551-6.262-17.734-6.262-30.547 0-10.526 1.94-20.137 5.815-28.831 4.025-8.695 9.689-15.56 16.996-20.594 7.453-5.034 16.174-7.55 26.165-7.55 14.76 0 26.54 5.72 35.335 17.16 8.794 11.213 13.642 26.429 14.536 45.65h-29.967c-.447-7.551-2.533-13.5-6.262-17.848-3.578-4.576-8.425-6.865-14.536-6.865-5.664 0-10.064 1.602-13.195 4.805-2.98 3.204-4.472 7.666-4.472 13.386 0 6.407 2.085 11.327 6.261 14.759 4.177 3.203 10.662 6.521 19.457 9.953 8.945 3.433 16.325 6.979 22.14 10.64 5.814 3.662 10.807 9.382 14.983 17.162 4.322 7.551 6.558 17.618 6.709 30.204 0 10.983-2.012 20.822-6.038 29.517-3.874 8.695-9.543 15.559-16.996 20.594-7.307 4.805-15.878 7.207-25.718 7.207Z"/><path stroke="#242424" stroke-width="16" d="M180.251 0c0 32.892 11.182 96.961 55.909 90.097 44.727-6.865 143.5-2.86 187.295 0C441.16 91.527 476.569 75.51 476.569 0"/></g></svg>