<svg xmlns="http://www.w3.org/2000/svg" width="120" height="120" fill="none"><path fill="#600" d="M110.769 115.385a4.616 4.616 0 1 0 9.231-.001 4.616 4.616 0 0 0-9.231.001ZM55.385 60a4.615 4.615 0 1 0 9.23 0 4.615 4.615 0 0 0-9.23 0ZM55.385 87.692a4.615 4.615 0 1 0 9.23 0 4.615 4.615 0 0 0-9.23 0ZM55.385 115.385a4.615 4.615 0 1 0 9.23 0 4.615 4.615 0 0 0-9.23 0ZM83.077 87.692a4.615 4.615 0 1 0 9.23 0 4.615 4.615 0 0 0-9.23 0ZM83.077 115.385a4.615 4.615 0 1 0 9.23 0 4.615 4.615 0 0 0-9.23 0ZM27.692 32.308a4.615 4.615 0 1 0 9.231 0 4.615 4.615 0 0 0-9.23 0ZM27.692 60a4.615 4.615 0 1 0 9.231 0 4.615 4.615 0 0 0-9.23 0ZM27.692 87.692a4.615 4.615 0 1 0 9.231 0 4.615 4.615 0 0 0-9.23 0ZM27.692 115.385a4.615 4.615 0 1 0 9.23 0 4.615 4.615 0 0 0-9.23 0ZM0 4.615a4.615 4.615 0 1 0 9.23 0 4.615 4.615 0 0 0-9.23 0ZM0 32.308a4.615 4.615 0 1 0 9.23 0 4.615 4.615 0 0 0-9.23 0ZM0 60a4.615 4.615 0 1 0 9.23 0A4.615 4.615 0 0 0 0 60ZM0 87.692a4.615 4.615 0 1 0 9.23 0 4.615 4.615 0 0 0-9.23 0ZM0 115.385a4.615 4.615 0 1 0 9.23 0 4.615 4.615 0 0 0-9.23 0Z"/></svg>