<svg xmlns="http://www.w3.org/2000/svg" width="90" height="90" fill="none"><path fill="#900" d="M6.923 86.538a3.462 3.462 0 1 1-6.923 0 3.462 3.462 0 0 1 6.923 0ZM48.462 45a3.461 3.461 0 1 1-6.923 0 3.461 3.461 0 0 1 6.922 0ZM48.462 65.77a3.462 3.462 0 1 1-6.924 0 3.462 3.462 0 0 1 6.924 0ZM48.462 86.538a3.461 3.461 0 1 1-6.923 0 3.461 3.461 0 0 1 6.922 0ZM27.692 65.77a3.462 3.462 0 1 1-6.923 0 3.462 3.462 0 0 1 6.923 0ZM27.692 86.538a3.462 3.462 0 1 1-6.923 0 3.462 3.462 0 0 1 6.923 0ZM69.23 24.23a3.462 3.462 0 1 1-6.922 0 3.462 3.462 0 0 1 6.923 0ZM69.23 45a3.462 3.462 0 1 1-6.922 0 3.462 3.462 0 0 1 6.923 0ZM69.23 65.77a3.462 3.462 0 1 1-6.922 0 3.462 3.462 0 0 1 6.923 0ZM69.23 86.538a3.462 3.462 0 1 1-6.922 0 3.462 3.462 0 0 1 6.923 0ZM90 3.462a3.462 3.462 0 1 1-6.923 0 3.462 3.462 0 0 1 6.923 0ZM90 24.23a3.462 3.462 0 1 1-6.923 0 3.462 3.462 0 0 1 6.923 0ZM90 45a3.461 3.461 0 1 1-6.923 0A3.461 3.461 0 0 1 90 45ZM90 65.77a3.462 3.462 0 1 1-6.923 0 3.462 3.462 0 0 1 6.923 0ZM90 86.538a3.462 3.462 0 1 1-6.923 0 3.462 3.462 0 0 1 6.923 0Z"/></svg>