<svg width="60" height="60" viewBox="0 0 60 60" fill="none" xmlns="http://www.w3.org/2000/svg">
<path d="M4.61538 57.6923C4.61538 58.9668 3.5822 60 2.30769 60C1.03319 60 0 58.9668 0 57.6923C0 56.4178 1.03319 55.3846 2.30769 55.3846C3.5822 55.3846 4.61538 56.4178 4.61538 57.6923Z" fill="#D9D9D9"/>
<path d="M32.3077 30C32.3077 31.2745 31.2745 32.3077 30 32.3077C28.7255 32.3077 27.6923 31.2745 27.6923 30C27.6923 28.7255 28.7255 27.6923 30 27.6923C31.2745 27.6923 32.3077 28.7255 32.3077 30Z" fill="#D9D9D9"/>
<path d="M32.3077 43.8462C32.3077 45.1207 31.2745 46.1538 30 46.1538C28.7255 46.1538 27.6923 45.1207 27.6923 43.8462C27.6923 42.5717 28.7255 41.5385 30 41.5385C31.2745 41.5385 32.3077 42.5717 32.3077 43.8462Z" fill="#D9D9D9"/>
<path d="M32.3077 57.6923C32.3077 58.9668 31.2745 60 30 60C28.7255 60 27.6923 58.9668 27.6923 57.6923C27.6923 56.4178 28.7255 55.3846 30 55.3846C31.2745 55.3846 32.3077 56.4178 32.3077 57.6923Z" fill="#D9D9D9"/>
<path d="M18.4615 43.8462C18.4615 45.1207 17.4283 46.1538 16.1538 46.1538C14.8793 46.1538 13.8462 45.1207 13.8462 43.8462C13.8462 42.5717 14.8793 41.5385 16.1538 41.5385C17.4283 41.5385 18.4615 42.5717 18.4615 43.8462Z" fill="#D9D9D9"/>
<path d="M18.4615 57.6923C18.4615 58.9668 17.4283 60 16.1538 60C14.8793 60 13.8462 58.9668 13.8462 57.6923C13.8462 56.4178 14.8793 55.3846 16.1538 55.3846C17.4283 55.3846 18.4615 56.4178 18.4615 57.6923Z" fill="#D9D9D9"/>
<path d="M46.1538 16.1538C46.1538 17.4283 45.1207 18.4615 43.8462 18.4615C42.5717 18.4615 41.5385 17.4283 41.5385 16.1538C41.5385 14.8793 42.5717 13.8462 43.8462 13.8462C45.1207 13.8462 46.1538 14.8793 46.1538 16.1538Z" fill="#D9D9D9"/>
<path d="M46.1538 30C46.1538 31.2745 45.1207 32.3077 43.8462 32.3077C42.5717 32.3077 41.5385 31.2745 41.5385 30C41.5385 28.7255 42.5717 27.6923 43.8462 27.6923C45.1207 27.6923 46.1538 28.7255 46.1538 30Z" fill="#D9D9D9"/>
<path d="M46.1538 43.8462C46.1538 45.1207 45.1207 46.1538 43.8462 46.1538C42.5717 46.1538 41.5385 45.1207 41.5385 43.8462C41.5385 42.5717 42.5717 41.5385 43.8462 41.5385C45.1207 41.5385 46.1538 42.5717 46.1538 43.8462Z" fill="#D9D9D9"/>
<path d="M46.1538 57.6923C46.1538 58.9668 45.1207 60 43.8462 60C42.5717 60 41.5385 58.9668 41.5385 57.6923C41.5385 56.4178 42.5717 55.3846 43.8462 55.3846C45.1207 55.3846 46.1538 56.4178 46.1538 57.6923Z" fill="#D9D9D9"/>
<path d="M60 2.30769C60 3.5822 58.9668 4.61538 57.6923 4.61538C56.4178 4.61538 55.3846 3.5822 55.3846 2.30769C55.3846 1.03319 56.4178 0 57.6923 0C58.9668 0 60 1.03319 60 2.30769Z" fill="#D9D9D9"/>
<path d="M60 16.1538C60 17.4283 58.9668 18.4615 57.6923 18.4615C56.4178 18.4615 55.3846 17.4283 55.3846 16.1538C55.3846 14.8793 56.4178 13.8462 57.6923 13.8462C58.9668 13.8462 60 14.8793 60 16.1538Z" fill="#D9D9D9"/>
<path d="M60 30C60 31.2745 58.9668 32.3077 57.6923 32.3077C56.4178 32.3077 55.3846 31.2745 55.3846 30C55.3846 28.7255 56.4178 27.6923 57.6923 27.6923C58.9668 27.6923 60 28.7255 60 30Z" fill="#D9D9D9"/>
<path d="M60 43.8462C60 45.1207 58.9668 46.1538 57.6923 46.1538C56.4178 46.1538 55.3846 45.1207 55.3846 43.8462C55.3846 42.5717 56.4178 41.5385 57.6923 41.5385C58.9668 41.5385 60 42.5717 60 43.8462Z" fill="#D9D9D9"/>
<path d="M60 57.6923C60 58.9668 58.9668 60 57.6923 60C56.4178 60 55.3846 58.9668 55.3846 57.6923C55.3846 56.4178 56.4178 55.3846 57.6923 55.3846C58.9668 55.3846 60 56.4178 60 57.6923Z" fill="#D9D9D9"/>
</svg>
