<svg xmlns="http://www.w3.org/2000/svg" width="52" height="52" fill="none"><path fill="#900" d="M48 2a2 2 0 1 1 4 0 2 2 0 0 1-4 0ZM24 26a2 2 0 1 1 4 0 2 2 0 0 1-4 0ZM24 14a2 2 0 1 1 4 0 2 2 0 0 1-4 0ZM24 2a2 2 0 1 1 4 0 2 2 0 0 1-4 0ZM36 14a2 2 0 1 1 4 0 2 2 0 0 1-4 0ZM36 2a2 2 0 1 1 4 0 2 2 0 0 1-4 0ZM12 38a2 2 0 1 1 4 0 2 2 0 0 1-4 0ZM12 26a2 2 0 1 1 4 0 2 2 0 0 1-4 0ZM12 14a2 2 0 1 1 4 0 2 2 0 0 1-4 0ZM12 2a2 2 0 1 1 4 0 2 2 0 0 1-4 0ZM0 50a2 2 0 1 1 4 0 2 2 0 0 1-4 0ZM0 38a2 2 0 1 1 4 0 2 2 0 0 1-4 0ZM0 26a2 2 0 1 1 4 0 2 2 0 0 1-4 0ZM0 14a2 2 0 1 1 4 0 2 2 0 0 1-4 0ZM0 2a2 2 0 1 1 4 0 2 2 0 0 1-4 0Z"/></svg>