<svg xmlns="http://www.w3.org/2000/svg" width="212" height="212" fill="none"><path fill="#320000" d="M16.308 8.154A8.154 8.154 0 1 0 0 8.154a8.154 8.154 0 0 0 16.308 0ZM114.154 106a8.154 8.154 0 1 0-16.309 0 8.154 8.154 0 0 0 16.309 0ZM114.154 57.077a8.154 8.154 0 1 0-16.308 0 8.154 8.154 0 0 0 16.308 0ZM114.154 8.154a8.154 8.154 0 1 0-16.308 0 8.154 8.154 0 0 0 16.308 0ZM65.23 57.077a8.154 8.154 0 1 0-16.307 0 8.154 8.154 0 0 0 16.308 0ZM65.23 8.154a8.154 8.154 0 1 0-16.307 0 8.154 8.154 0 0 0 16.308 0ZM163.077 154.923a8.154 8.154 0 1 0-16.309 0 8.154 8.154 0 0 0 16.309 0ZM163.077 106a8.154 8.154 0 1 0-16.309 0 8.154 8.154 0 0 0 16.309 0ZM163.077 57.077a8.154 8.154 0 1 0-16.308 0 8.154 8.154 0 0 0 16.308 0ZM163.077 8.154a8.154 8.154 0 1 0-16.308 0 8.154 8.154 0 0 0 16.308 0ZM212 203.846a8.154 8.154 0 1 0-16.309 0 8.154 8.154 0 0 0 16.309 0ZM212 154.923a8.154 8.154 0 1 0-16.309 0 8.154 8.154 0 0 0 16.309 0ZM212 106a8.154 8.154 0 1 0-16.309 0A8.154 8.154 0 0 0 212 106ZM212 57.077a8.154 8.154 0 1 0-16.308 0 8.154 8.154 0 0 0 16.308 0ZM212 8.154a8.154 8.154 0 1 0-16.308 0 8.154 8.154 0 0 0 16.308 0Z"/></svg>