<svg xmlns="http://www.w3.org/2000/svg" width="160" height="160" fill="none"><path fill="#900" d="M147.692 6.154a6.154 6.154 0 1 1 12.308 0 6.154 6.154 0 0 1-12.308 0ZM73.846 80a6.154 6.154 0 1 1 12.308 0 6.154 6.154 0 0 1-12.308 0ZM73.846 43.077a6.154 6.154 0 1 1 12.308 0 6.154 6.154 0 0 1-12.308 0ZM73.846 6.154a6.154 6.154 0 1 1 12.308 0 6.154 6.154 0 0 1-12.308 0ZM110.769 43.077a6.154 6.154 0 1 1 12.307 0 6.154 6.154 0 0 1-12.307 0ZM110.769 6.154a6.154 6.154 0 1 1 12.308 0 6.154 6.154 0 0 1-12.308 0ZM36.923 116.923a6.154 6.154 0 1 1 12.308 0 6.154 6.154 0 0 1-12.308 0ZM36.923 80a6.154 6.154 0 1 1 12.308 0 6.154 6.154 0 0 1-12.308 0ZM36.923 43.077a6.154 6.154 0 1 1 12.308 0 6.154 6.154 0 0 1-12.308 0ZM36.923 6.154a6.154 6.154 0 1 1 12.308 0 6.154 6.154 0 0 1-12.308 0ZM0 153.846a6.154 6.154 0 1 1 12.308 0 6.154 6.154 0 0 1-12.308 0ZM0 116.923a6.154 6.154 0 1 1 12.308 0 6.154 6.154 0 0 1-12.308 0ZM0 80a6.154 6.154 0 1 1 12.308 0A6.154 6.154 0 0 1 0 80ZM0 43.077a6.154 6.154 0 1 1 12.308 0 6.154 6.154 0 0 1-12.308 0ZM0 6.154a6.154 6.154 0 1 1 12.308 0A6.154 6.154 0 0 1 0 6.154Z"/></svg>