<svg width="60" height="60" viewBox="0 0 60 60" fill="none" xmlns="http://www.w3.org/2000/svg">
<path d="M4.61538 2.30769C4.61538 1.03319 3.5822 4.76837e-07 2.30769 4.76837e-07C1.03319 4.76837e-07 0 1.03319 0 2.30769C0 3.5822 1.03319 4.61539 2.30769 4.61539C3.5822 4.61539 4.61538 3.5822 4.61538 2.30769Z" fill="#0D0000"/>
<path d="M32.3077 30C32.3077 28.7255 31.2745 27.6923 30 27.6923C28.7255 27.6923 27.6923 28.7255 27.6923 30C27.6923 31.2745 28.7255 32.3077 30 32.3077C31.2745 32.3077 32.3077 31.2745 32.3077 30Z" fill="#0D0000"/>
<path d="M32.3077 16.1538C32.3077 14.8793 31.2745 13.8462 30 13.8462C28.7255 13.8462 27.6923 14.8793 27.6923 16.1538C27.6923 17.4283 28.7255 18.4615 30 18.4615C31.2745 18.4615 32.3077 17.4283 32.3077 16.1538Z" fill="#0D0000"/>
<path d="M32.3077 2.30769C32.3077 1.03319 31.2745 4.76837e-07 30 4.76837e-07C28.7255 4.76837e-07 27.6923 1.03319 27.6923 2.30769C27.6923 3.5822 28.7255 4.61539 30 4.61539C31.2745 4.61539 32.3077 3.5822 32.3077 2.30769Z" fill="#0D0000"/>
<path d="M18.4615 16.1538C18.4615 14.8793 17.4283 13.8462 16.1538 13.8462C14.8793 13.8462 13.8462 14.8793 13.8462 16.1538C13.8462 17.4283 14.8793 18.4615 16.1538 18.4615C17.4283 18.4615 18.4615 17.4283 18.4615 16.1538Z" fill="#0D0000"/>
<path d="M18.4615 2.30769C18.4615 1.03319 17.4283 4.76837e-07 16.1538 4.76837e-07C14.8793 4.76837e-07 13.8462 1.03319 13.8462 2.30769C13.8462 3.5822 14.8793 4.61539 16.1538 4.61539C17.4283 4.61539 18.4615 3.5822 18.4615 2.30769Z" fill="#0D0000"/>
<path d="M46.1538 43.8462C46.1538 42.5717 45.1207 41.5385 43.8462 41.5385C42.5717 41.5385 41.5385 42.5717 41.5385 43.8462C41.5385 45.1207 42.5717 46.1538 43.8462 46.1538C45.1207 46.1538 46.1538 45.1207 46.1538 43.8462Z" fill="#0D0000"/>
<path d="M46.1538 30C46.1538 28.7255 45.1207 27.6923 43.8462 27.6923C42.5717 27.6923 41.5385 28.7255 41.5385 30C41.5385 31.2745 42.5717 32.3077 43.8462 32.3077C45.1207 32.3077 46.1538 31.2745 46.1538 30Z" fill="#0D0000"/>
<path d="M46.1538 16.1538C46.1538 14.8793 45.1207 13.8462 43.8462 13.8462C42.5717 13.8462 41.5385 14.8793 41.5385 16.1538C41.5385 17.4283 42.5717 18.4615 43.8462 18.4615C45.1207 18.4615 46.1538 17.4283 46.1538 16.1538Z" fill="#0D0000"/>
<path d="M46.1538 2.30769C46.1538 1.03319 45.1207 4.76837e-07 43.8462 4.76837e-07C42.5717 4.76837e-07 41.5385 1.03319 41.5385 2.30769C41.5385 3.5822 42.5717 4.61539 43.8462 4.61539C45.1207 4.61539 46.1538 3.5822 46.1538 2.30769Z" fill="#0D0000"/>
<path d="M60 57.6923C60 56.4178 58.9668 55.3846 57.6923 55.3846C56.4178 55.3846 55.3846 56.4178 55.3846 57.6923C55.3846 58.9668 56.4178 60 57.6923 60C58.9668 60 60 58.9668 60 57.6923Z" fill="#0D0000"/>
<path d="M60 43.8462C60 42.5717 58.9668 41.5385 57.6923 41.5385C56.4178 41.5385 55.3846 42.5717 55.3846 43.8462C55.3846 45.1207 56.4178 46.1538 57.6923 46.1538C58.9668 46.1538 60 45.1207 60 43.8462Z" fill="#0D0000"/>
<path d="M60 30C60 28.7255 58.9668 27.6923 57.6923 27.6923C56.4178 27.6923 55.3846 28.7255 55.3846 30C55.3846 31.2745 56.4178 32.3077 57.6923 32.3077C58.9668 32.3077 60 31.2745 60 30Z" fill="#0D0000"/>
<path d="M60 16.1538C60 14.8793 58.9668 13.8462 57.6923 13.8462C56.4178 13.8462 55.3846 14.8793 55.3846 16.1538C55.3846 17.4283 56.4178 18.4615 57.6923 18.4615C58.9668 18.4615 60 17.4283 60 16.1538Z" fill="#0D0000"/>
<path d="M60 2.30769C60 1.03319 58.9668 4.76837e-07 57.6923 4.76837e-07C56.4178 4.76837e-07 55.3846 1.03319 55.3846 2.30769C55.3846 3.5822 56.4178 4.61539 57.6923 4.61539C58.9668 4.61539 60 3.5822 60 2.30769Z" fill="#0D0000"/>
</svg>
