<svg xmlns="http://www.w3.org/2000/svg" width="120" height="120" fill="none"><path fill="#0D0000" d="M9.23 4.615a4.615 4.615 0 1 0-9.23 0 4.615 4.615 0 0 0 9.23 0ZM64.615 60a4.615 4.615 0 1 0-9.23 0 4.615 4.615 0 0 0 9.23 0ZM64.615 32.308a4.615 4.615 0 1 0-9.23 0 4.615 4.615 0 0 0 9.23 0ZM64.615 4.615a4.615 4.615 0 1 0-9.23 0 4.615 4.615 0 0 0 9.23 0ZM36.923 32.308a4.615 4.615 0 1 0-9.23 0 4.615 4.615 0 0 0 9.23 0ZM36.923 4.615a4.615 4.615 0 1 0-9.23 0 4.615 4.615 0 0 0 9.23 0ZM92.308 87.692a4.615 4.615 0 1 0-9.231 0 4.615 4.615 0 0 0 9.23 0ZM92.308 60a4.615 4.615 0 1 0-9.231 0 4.615 4.615 0 0 0 9.23 0ZM92.308 32.308a4.615 4.615 0 1 0-9.231 0 4.615 4.615 0 0 0 9.23 0ZM92.308 4.615a4.615 4.615 0 1 0-9.231 0 4.615 4.615 0 0 0 9.23 0ZM120 115.385a4.616 4.616 0 1 0-9.231 0 4.616 4.616 0 0 0 9.231 0ZM120 87.692a4.615 4.615 0 1 0-9.23 0 4.615 4.615 0 0 0 9.23 0ZM120 60a4.615 4.615 0 1 0-9.23 0 4.615 4.615 0 0 0 9.23 0ZM120 32.308a4.615 4.615 0 1 0-9.23 0 4.615 4.615 0 0 0 9.23 0ZM120 4.615a4.615 4.615 0 1 0-9.23 0 4.615 4.615 0 0 0 9.23 0Z"/></svg>