<svg xmlns="http://www.w3.org/2000/svg" width="90" height="90" fill="none"><path fill="#900" d="M83.077 3.462a3.462 3.462 0 1 1 6.923 0 3.462 3.462 0 0 1-6.923 0ZM41.538 45a3.461 3.461 0 1 1 6.923 0 3.461 3.461 0 0 1-6.922 0ZM41.538 24.23a3.462 3.462 0 1 1 6.924 0 3.462 3.462 0 0 1-6.924 0ZM41.538 3.462a3.461 3.461 0 1 1 6.923 0 3.461 3.461 0 0 1-6.922 0ZM62.308 24.23a3.462 3.462 0 1 1 6.923 0 3.462 3.462 0 0 1-6.923 0ZM62.308 3.462a3.462 3.462 0 1 1 6.923 0 3.462 3.462 0 0 1-6.923 0ZM20.77 65.77a3.462 3.462 0 1 1 6.922 0 3.462 3.462 0 0 1-6.923 0ZM20.77 45a3.462 3.462 0 1 1 6.922 0 3.462 3.462 0 0 1-6.923 0ZM20.77 24.23a3.462 3.462 0 1 1 6.922 0 3.462 3.462 0 0 1-6.923 0ZM20.77 3.462a3.462 3.462 0 1 1 6.922 0 3.462 3.462 0 0 1-6.923 0ZM0 86.538a3.462 3.462 0 1 1 6.923 0 3.462 3.462 0 0 1-6.923 0ZM0 65.77a3.462 3.462 0 1 1 6.923 0 3.462 3.462 0 0 1-6.923 0ZM0 45a3.461 3.461 0 1 1 6.923 0A3.461 3.461 0 0 1 0 45ZM0 24.23a3.462 3.462 0 1 1 6.923 0 3.462 3.462 0 0 1-6.923 0ZM0 3.462a3.462 3.462 0 1 1 6.923 0 3.462 3.462 0 0 1-6.923 0Z"/></svg>