<svg width="88" height="88" viewBox="0 0 88 88" fill="none" xmlns="http://www.w3.org/2000/svg">
<path d="M6.76923 3.38461C6.76923 1.51534 5.25389 -9.53674e-07 3.38462 -9.53674e-07C1.51534 -9.53674e-07 0 1.51534 0 3.38461C0 5.25389 1.51534 6.76923 3.38462 6.76923C5.25389 6.76923 6.76923 5.25389 6.76923 3.38461Z" fill="black"/>
<path d="M47.3846 44C47.3846 42.1307 45.8693 40.6154 44 40.6154C42.1307 40.6154 40.6154 42.1307 40.6154 44C40.6154 45.8693 42.1307 47.3846 44 47.3846C45.8693 47.3846 47.3846 45.8693 47.3846 44Z" fill="black"/>
<path d="M47.3846 23.6923C47.3846 21.823 45.8693 20.3077 44 20.3077C42.1307 20.3077 40.6154 21.823 40.6154 23.6923C40.6154 25.5616 42.1307 27.0769 44 27.0769C45.8693 27.0769 47.3846 25.5616 47.3846 23.6923Z" fill="black"/>
<path d="M47.3846 3.38461C47.3846 1.51534 45.8693 -9.53674e-07 44 -9.53674e-07C42.1307 -9.53674e-07 40.6154 1.51534 40.6154 3.38461C40.6154 5.25389 42.1307 6.76923 44 6.76923C45.8693 6.76923 47.3846 5.25389 47.3846 3.38461Z" fill="black"/>
<path d="M27.0769 23.6923C27.0769 21.823 25.5616 20.3077 23.6923 20.3077C21.823 20.3077 20.3077 21.823 20.3077 23.6923C20.3077 25.5616 21.823 27.0769 23.6923 27.0769C25.5616 27.0769 27.0769 25.5616 27.0769 23.6923Z" fill="black"/>
<path d="M27.0769 3.38461C27.0769 1.51534 25.5616 -9.53674e-07 23.6923 -9.53674e-07C21.823 -9.53674e-07 20.3077 1.51534 20.3077 3.38461C20.3077 5.25389 21.823 6.76923 23.6923 6.76923C25.5616 6.76923 27.0769 5.25389 27.0769 3.38461Z" fill="black"/>
<path d="M67.6923 64.3077C67.6923 62.4384 66.177 60.9231 64.3077 60.9231C62.4384 60.9231 60.9231 62.4384 60.9231 64.3077C60.9231 66.177 62.4384 67.6923 64.3077 67.6923C66.177 67.6923 67.6923 66.177 67.6923 64.3077Z" fill="black"/>
<path d="M67.6923 44C67.6923 42.1307 66.177 40.6154 64.3077 40.6154C62.4384 40.6154 60.9231 42.1307 60.9231 44C60.9231 45.8693 62.4384 47.3846 64.3077 47.3846C66.177 47.3846 67.6923 45.8693 67.6923 44Z" fill="black"/>
<path d="M67.6923 23.6923C67.6923 21.823 66.177 20.3077 64.3077 20.3077C62.4384 20.3077 60.9231 21.823 60.9231 23.6923C60.9231 25.5616 62.4384 27.0769 64.3077 27.0769C66.177 27.0769 67.6923 25.5616 67.6923 23.6923Z" fill="black"/>
<path d="M67.6923 3.38461C67.6923 1.51534 66.177 -9.53674e-07 64.3077 -9.53674e-07C62.4384 -9.53674e-07 60.9231 1.51534 60.9231 3.38461C60.9231 5.25389 62.4384 6.76923 64.3077 6.76923C66.177 6.76923 67.6923 5.25389 67.6923 3.38461Z" fill="black"/>
<path d="M88 84.6154C88 82.7461 86.4847 81.2308 84.6154 81.2308C82.7461 81.2308 81.2308 82.7461 81.2308 84.6154C81.2308 86.4847 82.7461 88 84.6154 88C86.4847 88 88 86.4847 88 84.6154Z" fill="black"/>
<path d="M88 64.3077C88 62.4384 86.4847 60.9231 84.6154 60.9231C82.7461 60.9231 81.2308 62.4384 81.2308 64.3077C81.2308 66.177 82.7461 67.6923 84.6154 67.6923C86.4847 67.6923 88 66.177 88 64.3077Z" fill="black"/>
<path d="M88 44C88 42.1307 86.4847 40.6154 84.6154 40.6154C82.7461 40.6154 81.2308 42.1307 81.2308 44C81.2308 45.8693 82.7461 47.3846 84.6154 47.3846C86.4847 47.3846 88 45.8693 88 44Z" fill="black"/>
<path d="M88 23.6923C88 21.823 86.4847 20.3077 84.6154 20.3077C82.7461 20.3077 81.2308 21.823 81.2308 23.6923C81.2308 25.5616 82.7461 27.0769 84.6154 27.0769C86.4847 27.0769 88 25.5616 88 23.6923Z" fill="black"/>
<path d="M88 3.38461C88 1.51534 86.4847 -9.53674e-07 84.6154 -9.53674e-07C82.7461 -9.53674e-07 81.2308 1.51534 81.2308 3.38461C81.2308 5.25389 82.7461 6.76923 84.6154 6.76923C86.4847 6.76923 88 5.25389 88 3.38461Z" fill="black"/>
</svg>
