<svg width="80" height="80" viewBox="0 0 80 80" fill="none" xmlns="http://www.w3.org/2000/svg">
<path d="M6.15385 3.07692C6.15385 1.37758 4.77626 -1.43051e-06 3.07692 -1.43051e-06C1.37759 -1.43051e-06 0 1.37758 0 3.07692C0 4.77626 1.37759 6.15384 3.07692 6.15384C4.77626 6.15384 6.15385 4.77626 6.15385 3.07692Z" fill="black"/>
<path d="M43.0769 40C43.0769 38.3007 41.6993 36.9231 40 36.9231C38.3007 36.9231 36.9231 38.3007 36.9231 40C36.9231 41.6993 38.3007 43.0769 40 43.0769C41.6993 43.0769 43.0769 41.6993 43.0769 40Z" fill="black"/>
<path d="M43.0769 21.5385C43.0769 19.8391 41.6993 18.4615 40 18.4615C38.3007 18.4615 36.9231 19.8391 36.9231 21.5385C36.9231 23.2378 38.3007 24.6154 40 24.6154C41.6993 24.6154 43.0769 23.2378 43.0769 21.5385Z" fill="black"/>
<path d="M43.0769 3.07692C43.0769 1.37758 41.6993 -1.43051e-06 40 -1.43051e-06C38.3007 -1.43051e-06 36.9231 1.37758 36.9231 3.07692C36.9231 4.77626 38.3007 6.15384 40 6.15384C41.6993 6.15384 43.0769 4.77626 43.0769 3.07692Z" fill="black"/>
<path d="M24.6154 21.5385C24.6154 19.8391 23.2378 18.4615 21.5385 18.4615C19.8391 18.4615 18.4615 19.8391 18.4615 21.5385C18.4615 23.2378 19.8391 24.6154 21.5385 24.6154C23.2378 24.6154 24.6154 23.2378 24.6154 21.5385Z" fill="black"/>
<path d="M24.6154 3.07692C24.6154 1.37758 23.2378 -1.43051e-06 21.5385 -1.43051e-06C19.8391 -1.43051e-06 18.4615 1.37758 18.4615 3.07692C18.4615 4.77626 19.8391 6.15384 21.5385 6.15384C23.2378 6.15384 24.6154 4.77626 24.6154 3.07692Z" fill="black"/>
<path d="M61.5385 58.4615C61.5385 56.7622 60.1609 55.3846 58.4615 55.3846C56.7622 55.3846 55.3846 56.7622 55.3846 58.4615C55.3846 60.1609 56.7622 61.5385 58.4615 61.5385C60.1609 61.5385 61.5385 60.1609 61.5385 58.4615Z" fill="black"/>
<path d="M61.5385 40C61.5385 38.3007 60.1609 36.9231 58.4615 36.9231C56.7622 36.9231 55.3846 38.3007 55.3846 40C55.3846 41.6993 56.7622 43.0769 58.4615 43.0769C60.1609 43.0769 61.5385 41.6993 61.5385 40Z" fill="black"/>
<path d="M61.5385 21.5385C61.5385 19.8391 60.1609 18.4615 58.4615 18.4615C56.7622 18.4615 55.3846 19.8391 55.3846 21.5385C55.3846 23.2378 56.7622 24.6154 58.4615 24.6154C60.1609 24.6154 61.5385 23.2378 61.5385 21.5385Z" fill="black"/>
<path d="M61.5385 3.07692C61.5385 1.37758 60.1609 -1.43051e-06 58.4615 -1.43051e-06C56.7622 -1.43051e-06 55.3846 1.37758 55.3846 3.07692C55.3846 4.77626 56.7622 6.15384 58.4615 6.15384C60.1609 6.15384 61.5385 4.77626 61.5385 3.07692Z" fill="black"/>
<path d="M80 76.9231C80 75.2237 78.6224 73.8462 76.9231 73.8462C75.2237 73.8462 73.8462 75.2237 73.8462 76.9231C73.8462 78.6224 75.2237 80 76.9231 80C78.6224 80 80 78.6224 80 76.9231Z" fill="black"/>
<path d="M80 58.4615C80 56.7622 78.6224 55.3846 76.9231 55.3846C75.2237 55.3846 73.8462 56.7622 73.8462 58.4615C73.8462 60.1609 75.2237 61.5385 76.9231 61.5385C78.6224 61.5385 80 60.1609 80 58.4615Z" fill="black"/>
<path d="M80 40C80 38.3007 78.6224 36.9231 76.9231 36.9231C75.2237 36.9231 73.8462 38.3007 73.8462 40C73.8462 41.6993 75.2237 43.0769 76.9231 43.0769C78.6224 43.0769 80 41.6993 80 40Z" fill="black"/>
<path d="M80 21.5385C80 19.8391 78.6224 18.4615 76.9231 18.4615C75.2237 18.4615 73.8462 19.8391 73.8462 21.5385C73.8462 23.2378 75.2237 24.6154 76.9231 24.6154C78.6224 24.6154 80 23.2378 80 21.5385Z" fill="black"/>
<path d="M80 3.07692C80 1.37758 78.6224 -1.43051e-06 76.9231 -1.43051e-06C75.2237 -1.43051e-06 73.8462 1.37758 73.8462 3.07692C73.8462 4.77626 75.2237 6.15384 76.9231 6.15384C78.6224 6.15384 80 4.77626 80 3.07692Z" fill="black"/>
</svg>
